<?xml version="1.0" encoding="UTF-8"?>
<svg version="1.1" xmlns="http://www.w3.org/2000/svg" width="512" height="512">
 <path d="M0 0 C168.96 0 337.92 0 512 0 C512 168.96 512 337.92 512 512 C343.04 512 174.08 512 0 512 C0 343.04 0 174.08 0 0 Z " fill="#F4F3F4" transform="translate(0,0)"/>
 <path d="M0 0 C168.96 0 337.92 0 512 0 C512 168.96 512 337.92 512 512 C343.04 512 174.08 512 0 512 C0 343.04 0 174.08 0 0 Z M209.49609375 19.40576172 C206.90231135 20.02325647 204.29977519 20.56423728 201.6875 21.09765625 C161.52898382 29.59739717 123.95330288 50.1012558 94 78 C92.62924817 79.19240122 91.25442137 80.38013883 89.875 81.5625 C82.07302883 88.39508798 75.42757684 95.8691153 69 104 C68.2059375 104.98871094 67.411875 105.97742188 66.59375 106.99609375 C48.56378853 129.84735821 35.22863986 155.41531838 26 183 C25.76990234 183.68594238 25.53980469 184.37188477 25.30273438 185.07861328 C21.90810417 195.4477158 19.87812519 206.26606 18 217 C17.81904785 217.95285889 17.6380957 218.90571777 17.45166016 219.88745117 C15.46097252 231.63286467 15.60432179 243.43138964 15.625 255.3125 C15.62521149 256.42772034 15.62542297 257.54294067 15.62564087 258.69195557 C15.65629208 274.84993504 16.2759611 290.21864748 20 306 C20.34504231 307.667434 20.68750593 309.33540375 21.02734375 311.00390625 C28.25921402 344.59700326 44.6890331 377.18565154 66 404 C66.70382813 404.89589844 67.40765625 405.79179687 68.1328125 406.71484375 C103.06207013 450.34511717 151.79916508 480.25802331 206.4375 492.125 C207.16428955 492.28395752 207.8910791 492.44291504 208.63989258 492.60668945 C223.69045183 495.734057 238.36831708 496.40380434 253.6875 496.375 C255.24278915 496.37468277 255.24278915 496.37468277 256.82949829 496.37435913 C273.56127848 496.3403485 289.5780267 495.41971104 306 492 C306.88961426 491.82339844 307.77922852 491.64679688 308.69580078 491.46484375 C343.23892155 484.42985027 376.49045944 467.84699279 404 446 C404.87269531 445.319375 405.74539063 444.63875 406.64453125 443.9375 C442.97906958 414.99754561 468.21116819 377.44220002 484 334 C484.26538574 333.28618164 484.53077148 332.57236328 484.80419922 331.83691406 C488.64582368 321.45596801 491.04830538 310.86919362 493 300 C493.18209015 299.06688995 493.18209015 299.06688995 493.36785889 298.1149292 C495.87500697 285.16544292 496.46892483 272.53200342 496.39111328 259.35791016 C496.37505138 256.1353095 496.39104724 252.91396891 496.41015625 249.69140625 C496.42882425 232.15278146 494.75003708 215.06995781 490.3125 198.0625 C490.0561377 197.06855225 489.79977539 196.07460449 489.53564453 195.05053711 C481.09810845 163.37087679 466.40325617 133.67222892 446 108 C445.29617188 107.10410156 444.59234375 106.20820312 443.8671875 105.28515625 C416.2337383 70.76810591 380.45175515 45.2828774 339.05761719 29.77539062 C337.36589505 29.13788356 335.68515271 28.47131467 334.0078125 27.796875 C296.98504053 13.26457198 248.13924721 10.18958062 209.49609375 19.40576172 Z " fill="#F4F4F4" transform="translate(0,0)"/>
 <path d="M0 0 C0.95655991 -0.00974854 1.91311981 -0.01949707 2.89866638 -0.02954102 C23.91877282 -0.19957823 44.26555559 -0.06318985 64.921875 4.23828125 C65.81148926 4.41488281 66.70110352 4.59148438 67.61767578 4.7734375 C102.15319817 11.80688351 135.42434048 28.38434552 162.921875 50.23828125 C163.81777344 50.94210938 164.71367187 51.6459375 165.63671875 52.37109375 C209.26699217 87.30035138 239.17989831 136.03744633 251.046875 190.67578125 C251.20583252 191.4025708 251.36479004 192.12936035 251.52856445 192.87817383 C252.03705981 195.32532448 252.48930935 197.77653273 252.921875 200.23828125 C253.10282715 201.2550293 253.2837793 202.27177734 253.47021484 203.31933594 C255.35327638 215.37969606 255.31815748 227.43272348 255.296875 239.61328125 C255.29666351 240.72600403 255.29645203 241.83872681 255.29623413 242.98516846 C255.26556342 259.12435827 254.64159677 274.47522345 250.921875 290.23828125 C250.57683269 291.90571525 250.23436907 293.573685 249.89453125 295.2421875 C242.66097182 328.8431309 226.22625198 361.41199774 204.921875 388.23828125 C204.24125 389.11097656 203.560625 389.98367188 202.859375 390.8828125 C175.3046821 425.47813465 139.31926283 450.97577147 97.97949219 466.46289062 C96.28777005 467.10039769 94.60702771 467.76696658 92.9296875 468.44140625 C67.40614735 478.4599921 39.98282168 480.60422525 12.859375 480.67578125 C11.8641684 480.68195465 10.86896179 480.68812805 9.84359741 480.69448853 C-2.71268884 480.74458681 -14.73587196 479.93901854 -27.08239746 477.6126709 C-29.05409193 477.24278975 -31.03136434 476.90305544 -33.00854492 476.5637207 C-63.95206545 471.19975234 -95.68851501 457.7269362 -121.078125 439.23828125 C-122.563125 438.16126953 -122.563125 438.16126953 -124.078125 437.0625 C-165.84813254 406.21449699 -195.28476012 367.11134943 -213.078125 318.23828125 C-213.34351074 317.52978027 -213.60889648 316.8212793 -213.88232422 316.09130859 C-217.51691605 306.3655237 -219.75392829 296.46356268 -221.53759766 286.26000977 C-221.94381533 283.98911719 -222.38733286 281.72484683 -222.84912109 279.46459961 C-225.18911027 267.52241812 -225.5407117 255.81936264 -225.46923828 243.67163086 C-225.45319638 240.44015974 -225.46915599 237.20994846 -225.48828125 233.97851562 C-225.50693013 216.42222602 -223.83267563 199.32553784 -219.390625 182.30078125 C-219.1342627 181.3068335 -218.87790039 180.31288574 -218.61376953 179.28881836 C-206.16134345 132.53481052 -178.99182588 86.80944528 -140.828125 56.4375 C-139.07328102 55.03412335 -137.3410727 53.6016287 -135.640625 52.1328125 C-113.22551331 32.90484951 -85.89402471 19.59350186 -58.078125 10.23828125 C-56.85738281 9.82191406 -55.63664063 9.40554687 -54.37890625 8.9765625 C-37.0477108 3.58321386 -18.15236914 0.15309607 0 0 Z M-25.078125 23.23828125 C-25.94759766 23.4098877 -26.81707031 23.58149414 -27.71289062 23.75830078 C-72.00258315 32.53933656 -111.17139411 54.48836285 -143.078125 86.23828125 C-143.60067871 86.75680664 -144.12323242 87.27533203 -144.66162109 87.80957031 C-173.21291234 116.51657922 -191.85725454 154.58499132 -200.953125 193.73828125 C-201.14430908 194.56062256 -201.33549316 195.38296387 -201.5324707 196.23022461 C-204.47164945 209.76538958 -205.43044043 223.17863292 -205.328125 236.98828125 C-205.32535553 237.72641052 -205.32258606 238.46453979 -205.31973267 239.22503662 C-205.26821401 250.97858303 -204.84594023 262.60352774 -203.078125 274.23828125 C-202.97097168 274.94533203 -202.86381836 275.65238281 -202.75341797 276.38085938 C-201.25396247 285.870863 -198.98781918 295.08408105 -196.078125 304.23828125 C-195.74651367 305.30393311 -195.74651367 305.30393311 -195.40820312 306.39111328 C-182.39598395 347.71108027 -157.19674751 385.37795648 -123.078125 412.23828125 C-122.12679687 413.01816406 -121.17546875 413.79804688 -120.1953125 414.6015625 C-82.44491114 444.86946743 -34.05941087 460.67809789 14.046875 460.67578125 C15.34199005 460.67837952 15.34199005 460.67837952 16.66326904 460.68103027 C76.01499148 460.62917445 131.10010176 435.33170449 173.234375 394.17578125 C178.15289538 389.13690556 182.56917566 383.76718333 186.921875 378.23828125 C187.70175781 377.28695313 188.48164063 376.335625 189.28515625 375.35546875 C209.58977186 350.03137082 224.57013198 318.07913097 230.921875 286.23828125 C231.10234375 285.39072266 231.2828125 284.54316406 231.46875 283.66992188 C236.9891018 257.01930458 237.79398118 226.90050776 231.921875 200.23828125 C231.56524717 198.44944944 231.20984119 196.66037373 230.85546875 194.87109375 C223.81171214 160.56937318 208.42485085 128.10014975 185.921875 101.23828125 C185.43041992 100.6453125 184.93896484 100.05234375 184.43261719 99.44140625 C174.84372989 87.89774257 164.74021937 77.54242498 152.921875 68.23828125 C151.97054688 67.45839844 151.01921875 66.67851563 150.0390625 65.875 C102.60831057 27.84548407 34.66919283 10.61647565 -25.078125 23.23828125 Z " fill="#353535" transform="translate(241.078125,15.76171875)"/>
 <path d="M0 0 C3.40312738 1.05875074 6.01353231 2.00902154 9 4 C7.70891809 7.39002721 6.24218459 10.52160831 4.453125 13.67578125 C3.94547607 14.57321045 3.43782715 15.47063965 2.91479492 16.39526367 C2.3654126 17.35795166 1.81603027 18.32063965 1.25 19.3125 C0.67290283 20.32868408 0.09580566 21.34486816 -0.4987793 22.3918457 C-5.12525525 30.51704339 -9.82982144 38.5956416 -14.55566406 46.66333008 C-19.08986099 54.41246956 -23.55553962 62.19923755 -28 70 C-33.16683843 79.06597962 -38.36636765 88.11181725 -43.625 97.125 C-44.18058594 98.07761719 -44.73617187 99.03023438 -45.30859375 100.01171875 C-45.83839844 100.91792969 -46.36820312 101.82414062 -46.9140625 102.7578125 C-47.41969727 103.62825195 -47.92533203 104.49869141 -48.44628906 105.39550781 C-49.51793725 107.19191618 -50.6266718 108.96653808 -51.76464844 110.72167969 C-52.32442383 111.59469727 -52.88419922 112.46771484 -53.4609375 113.3671875 C-53.97188965 114.1391748 -54.4828418 114.91116211 -55.00927734 115.70654297 C-56.25829952 118.5979462 -55.94731523 120.0370357 -55 123 C-54.49210937 123.79535156 -53.98421875 124.59070313 -53.4609375 125.41015625 C-50.74891472 130.21783299 -51.52573165 135.64076763 -52 141 C-53.7294487 146.83688936 -58.19004397 150.47981041 -63 154 C-69.17293615 156.05764538 -76.51189984 156.13095462 -82.4375 153.4375 C-91.70501235 144.62206142 -91.70501235 144.62206142 -92.23828125 138.07421875 C-92.48716466 126.71727567 -92.48716466 126.71727567 -88 122 C-82.64532054 116.96731686 -79.90652821 114.86366149 -72.375 114.9375 C-71.18648438 114.94652344 -69.99796875 114.95554687 -68.7734375 114.96484375 C-67.85820312 114.97644531 -66.94296875 114.98804688 -66 115 C-65.73606445 114.29399658 -65.47212891 113.58799316 -65.20019531 112.8605957 C-63.92926592 109.83140942 -62.43237207 107.07919805 -60.796875 104.23046875 C-59.83189087 102.5451001 -59.83189087 102.5451001 -58.84741211 100.82568359 C-58.14840128 99.61288279 -57.44926061 98.40015681 -56.75 97.1875 C-56.0252852 95.92540022 -55.30075976 94.66319169 -54.57641602 93.40087891 C-49.49625437 84.55723637 -44.36874397 75.74132033 -39.21948242 66.93774414 C-34.97543594 59.68117448 -30.76107187 52.40797019 -26.5625 45.125 C-25.94777832 44.05910645 -25.33305664 42.99321289 -24.69970703 41.89501953 C-21.76265877 36.80020245 -18.8288586 31.70354497 -15.90113831 26.60336304 C-14.53493486 24.22402828 -13.16719744 21.84557718 -11.79928589 19.46722412 C-10.83870135 17.7955961 -9.88037822 16.12266921 -8.92211914 14.44970703 C-6.08890547 9.52417226 -3.24312208 4.66752061 0 0 Z " fill="#FD3636" transform="translate(328,121)"/>
 <path d="M0 0 C1.08166443 -0.00218285 1.08166443 -0.00218285 2.18518066 -0.00440979 C3.70829309 -0.00275137 5.23142237 0.0088039 6.75439453 0.02954102 C9.08568501 0.05849359 11.41470092 0.05015179 13.74609375 0.03710938 C15.22657355 0.04334713 16.70704617 0.05173836 18.1875 0.0625 C18.8844397 0.05956436 19.58137939 0.05662872 20.29943848 0.05360413 C23.18450603 0.1098366 25.1338521 0.16929818 27.5246582 1.86816406 C29.00911159 4.12857402 29.10715086 6.00246692 29.28125 8.68359375 C29.37986328 10.03517578 29.37986328 10.03517578 29.48046875 11.4140625 C29.53654297 12.44466797 29.53654297 12.44466797 29.59375 13.49609375 C30.61855469 13.46128906 31.64335938 13.42648437 32.69921875 13.390625 C34.05987936 13.3624734 35.4205578 13.33517471 36.78125 13.30859375 C37.45478516 13.28345703 38.12832031 13.25832031 38.82226562 13.23242188 C43.30239748 13.16685897 45.98815999 13.82865726 49.59375 16.49609375 C49.17693127 21.35897895 47.22390855 23.36095682 43.59375 26.49609375 C42.665625 27.03234375 41.7375 27.56859375 40.78125 28.12109375 C40.059375 28.57484375 39.3375 29.02859375 38.59375 29.49609375 C38.59375 30.48609375 38.59375 31.47609375 38.59375 32.49609375 C39.521875 33.11484375 40.45 33.73359375 41.40625 34.37109375 C44.65648367 36.53791619 45.94526582 38.01596048 47.59375 41.49609375 C47.59375 42.15609375 47.59375 42.81609375 47.59375 43.49609375 C46.93375 43.49609375 46.27375 43.49609375 45.59375 43.49609375 C45.01625 42.56796875 44.43875 41.63984375 43.84375 40.68359375 C41.37603833 37.18766888 39.49660207 36.09271505 35.59375 34.49609375 C35.3875 35.13546875 35.18125 35.77484375 34.96875 36.43359375 C33.59375 38.49609375 33.59375 38.49609375 30.90625 39.24609375 C27.45345515 39.50668204 24.05507433 39.56532024 20.59375 39.49609375 C21.08875 38.50609375 21.08875 38.50609375 21.59375 37.49609375 C23.57375 37.49609375 25.55375 37.49609375 27.59375 37.49609375 C27.59375 36.83609375 27.59375 36.17609375 27.59375 35.49609375 C24.12433454 35.95431843 20.91979951 36.38741058 17.59375 37.49609375 C16.93375 38.48609375 16.27375 39.47609375 15.59375 40.49609375 C15.59375 39.83609375 15.59375 39.17609375 15.59375 38.49609375 C13.72009766 38.92921875 13.72009766 38.92921875 11.80859375 39.37109375 C1.83275512 41.54610922 -7.80400647 42.90104623 -18.03125 42.93359375 C-19.0200415 42.94326172 -20.00883301 42.95292969 -21.02758789 42.96289062 C-27.91330156 42.88102533 -27.91330156 42.88102533 -30.20117188 41.09448242 C-31.40625 39.49609375 -31.40625 39.49609375 -31.2734375 37.48828125 C-28.23321093 30.50397696 -18.90025847 26.53309274 -12.40625 23.49609375 C-11.74625 23.49609375 -11.08625 23.49609375 -10.40625 23.49609375 C-10.42196045 22.94147461 -10.4376709 22.38685547 -10.45385742 21.81542969 C-10.51637862 19.29242223 -10.55529342 16.76957799 -10.59375 14.24609375 C-10.61888672 13.37339844 -10.64402344 12.50070312 -10.66992188 11.6015625 C-10.67958984 10.75722656 -10.68925781 9.91289062 -10.69921875 9.04296875 C-10.7149292 8.26791992 -10.73063965 7.49287109 -10.74682617 6.69433594 C-9.74310813 0.21585763 -5.75351042 -0.09274089 0 0 Z " fill="#B32328" transform="translate(42.40625,450.50390625)"/>
 <path d="M0 0 C5.25074698 3.0292771 8.53165072 6.93888429 10.25 12.875 C10.25 14.195 10.25 15.515 10.25 16.875 C5.96 16.875 1.67 16.875 -2.75 16.875 C-3.41 14.895 -4.07 12.915 -4.75 10.875 C-8.57085953 8.47331687 -12.32897781 8.48026588 -16.75 8.875 C-19.62146994 10.24497157 -19.62146994 10.24497157 -21.75 11.875 C-21.71906827 14.29085574 -21.71906827 14.29085574 -20.75 16.875 C-17.23183545 19.28216522 -13.51117163 20.24408963 -9.4375 21.3125 C-1.056118 23.52472872 5.18326896 25.59157413 10.25 32.875 C12.21624161 36.80748322 11.57860277 41.57882306 11.25 45.875 C9.5181343 51.0705971 6.72532879 53.77669545 2.25 56.875 C-5.87415221 59.70509443 -17.34488046 60.9565433 -25.4375 57.25 C-30.92349971 53.8106536 -34.23271378 49.22001512 -35.75 42.875 C-35.75 41.555 -35.75 40.235 -35.75 38.875 C-30.305 38.38 -30.305 38.38 -24.75 37.875 C-23.83854167 39.89322917 -22.92708333 41.91145833 -22.015625 43.9296875 C-20.47392629 46.29933552 -19.40302135 46.94285736 -16.75 47.875 C-12.17461043 48.44785365 -7.99604133 48.29865405 -3.625 46.8125 C-1.35901959 44.87953884 -1.35901959 44.87953884 -1.4375 41.1875 C-1.5921875 39.5478125 -1.5921875 39.5478125 -1.75 37.875 C-6.52473733 35.55247345 -11.14404467 33.69352127 -16.3125 32.4375 C-22.40560045 30.86508698 -27.41275766 28.43842709 -31.6875 23.75 C-34.21365763 19.29207477 -34.34012644 14.86114077 -33.75 9.875 C-31.68594543 5.40288178 -28.71827888 2.25855264 -24.48828125 -0.2109375 C-17.14676857 -2.66159936 -7.36254027 -2.33240779 0 0 Z " fill="#06068D" transform="translate(267.75,313.125)"/>
 <path d="M0 0 C1.09570312 0.00902344 2.19140625 0.01804688 3.3203125 0.02734375 C4.16335938 0.03894531 5.00640625 0.05054688 5.875 0.0625 C4.10431506 5.02441939 1.5116217 9.48628365 -1.0625 14.0625 C-1.50529297 14.8565625 -1.94808594 15.650625 -2.40429688 16.46875 C-4.58594626 20.37035845 -6.79430521 24.24723724 -9.125 28.0625 C-4.85922431 31.0165719 -4.85922431 31.0165719 -0.125 33.0625 C0.10445312 32.42441406 0.33390625 31.78632813 0.5703125 31.12890625 C2.35738556 26.92874951 4.54052022 22.99059103 6.75 19 C7.18441406 18.19755859 7.61882812 17.39511719 8.06640625 16.56835938 C10.29269097 12.5403217 12.3329653 9.10206001 15.875 6.0625 C21.38822936 12.82065212 21.42584643 17.39726186 20.875 26.0625 C19.1455513 31.89938936 14.68495603 35.54231041 9.875 39.0625 C3.70206385 41.12014538 -3.63689984 41.19345462 -9.5625 38.5 C-18.83001235 29.68456142 -18.83001235 29.68456142 -19.36328125 23.13671875 C-19.61216466 11.77977567 -19.61216466 11.77977567 -15.125 7.0625 C-9.98600938 2.23253554 -7.22643855 -0.07687701 0 0 Z " fill="#373535" transform="translate(255.125,235.9375)"/>
 <path d="M0 0 C0.33 0 0.66 0 1 0 C1 10.89 1 21.78 1 33 C3.97 32.401875 6.94 31.80375 10 31.1875 C10.91910156 31.00598389 11.83820312 30.82446777 12.78515625 30.63745117 C18.09784365 29.54222198 23.013262 28.15490262 28 26 C29.28436734 24.0162233 29.28436734 24.0162233 30 22 C33.03933684 19.90390563 35.38846698 19.92836629 39 20 C38.98839844 19.28972656 38.97679687 18.57945312 38.96484375 17.84765625 C38.95582031 16.92855469 38.94679687 16.00945312 38.9375 15.0625 C38.92589844 14.14597656 38.91429687 13.22945313 38.90234375 12.28515625 C39 10 39 10 40 9 C42.43212772 8.84576751 44.81635567 8.76833254 47.25 8.75 C47.91902344 8.729375 48.58804688 8.70875 49.27734375 8.6875 C53.7250066 8.65254784 56.41874357 9.36264061 60 12 C59.58318127 16.8628852 57.63015855 18.86486307 54 22 C53.071875 22.53625 52.14375 23.0725 51.1875 23.625 C50.465625 24.07875 49.74375 24.5325 49 25 C49 25.99 49 26.98 49 28 C49.928125 28.61875 50.85625 29.2375 51.8125 29.875 C55.06273367 32.04182244 56.35151582 33.51986673 58 37 C58 37.66 58 38.32 58 39 C57.34 39 56.68 39 56 39 C55.4225 38.071875 54.845 37.14375 54.25 36.1875 C51.78228833 32.69157513 49.90285207 31.5966213 46 30 C45.79375 30.639375 45.5875 31.27875 45.375 31.9375 C44 34 44 34 41.3125 34.75 C37.85970515 35.01058829 34.46132433 35.06922649 31 35 C31.495 34.01 31.495 34.01 32 33 C33.98 33 35.96 33 38 33 C38 32.34 38 31.68 38 31 C34.53058454 31.45822468 31.32604951 31.89131683 28 33 C27.34 33.99 26.68 34.98 26 36 C26 35.34 26 34.68 26 34 C24.12634766 34.433125 24.12634766 34.433125 22.21484375 34.875 C12.23900512 37.05001547 2.60224353 38.40495248 -7.625 38.4375 C-8.6137915 38.44716797 -9.60258301 38.45683594 -10.62133789 38.46679688 C-17.50705156 38.38493158 -17.50705156 38.38493158 -19.79492188 36.59838867 C-21 35 -21 35 -20.8671875 32.9921875 C-17.82696093 26.00788321 -8.49400847 22.03699899 -2 19 C-1.34 19 -0.68 19 0 19 C0 12.73 0 6.46 0 0 Z " fill="#E4DFDF" transform="translate(32,455)"/>
 <path d="M0 0 C3 1 3 1 5 3 C5.99 3.33 6.98 3.66 8 4 C9.8125 6.8125 9.8125 6.8125 11 10 C10.1875 12.375 10.1875 12.375 9 14 C8.01 14 7.02 14 6 14 C5.505 12.515 5.505 12.515 5 11 C-5.74203347 14.71568438 -5.74203347 14.71568438 -13.1171875 22.5078125 C-13.59627315 25.10744689 -13.59627315 25.10744689 -13.78515625 27.69140625 C-14.06595348 30.7087001 -15.1612916 32.62500165 -17 35 C-20.19491759 36.59745879 -23.53209389 36.50816842 -27 36 C-29.96858157 33.79259319 -30.82865791 32.51402627 -32 29 C-32.20017082 26.37776226 -32.32264877 23.81220042 -32.375 21.1875 C-32.41238281 20.48818359 -32.44976562 19.78886719 -32.48828125 19.06835938 C-32.55429974 15.14759486 -32.16339781 12.67165151 -29.73046875 9.51953125 C-27 7 -27 7 -24.90234375 6.34375 C-19.2838538 6.79054841 -19.2838538 6.79054841 -17.2265625 8.30859375 C-14.71007539 9.37339119 -14.71007539 9.37339119 -11.43359375 7.19140625 C-10.09139891 6.33075208 -8.7596188 5.45368712 -7.4375 4.5625 C-4.98927075 2.93582419 -2.56491178 1.45024022 0 0 Z " fill="#121212" transform="translate(418,156)"/>
 <path d="M0 0 C5.77919981 4.88021317 5.77919981 4.88021317 6.20532227 8.97119141 C6.24197998 9.75671387 6.2786377 10.54223633 6.31640625 11.3515625 C6.35830078 12.20234375 6.40019531 13.053125 6.44335938 13.9296875 C6.48267578 14.81914062 6.52199219 15.70859375 6.5625 16.625 C6.60568359 17.5221875 6.64886719 18.419375 6.69335938 19.34375 C6.79956861 21.56234283 6.90161194 23.7810488 7 26 C1.89182935 29.0917875 -0.86885133 30.5285473 -7 30 C-10.78101986 27.34306712 -11.87965186 24.39521195 -13 20 C-13.12375 18.845 -13.2475 17.69 -13.375 16.5 C-14.12352347 12.30826857 -15.46338879 10.35487288 -18 7 C-16.68 6.01 -15.36 5.02 -14 4 C-13.01 4.66 -12.02 5.32 -11 6 C-10.731875 5.38125 -10.46375 4.7625 -10.1875 4.125 C-7.74820835 -0.24004822 -4.62536545 -0.64755116 0 0 Z " fill="#0E0E0E" transform="translate(131,380)"/>
 <path d="M0 0 C0 0.66 0 1.32 0 2 C0.598125 2.226875 1.19625 2.45375 1.8125 2.6875 C4.67602321 4.40561393 5.52767754 6.00973381 7 9 C7.91260915 16.06824731 7.74865583 22.841494 4 29 C1.62173482 31.54228347 0.47852182 31.95015398 -3 32.3125 C-7.6768559 31.82532751 -7.6768559 31.82532751 -10 30 C-11.89061967 25.44347058 -12.32508568 21.41156903 -12.375 16.5 C-12.40335937 15.2315625 -12.43171875 13.963125 -12.4609375 12.65625 C-11.92734609 8.42369438 -10.59864637 6.33059024 -8 3 C-7.525625 2.38125 -7.05125 1.7625 -6.5625 1.125 C-4.36206924 -0.45931015 -2.63861736 -0.21394195 0 0 Z " fill="#121212" transform="translate(449,276)"/>
 <path d="M0 0 C10.23 0 20.46 0 31 0 C31 5.28 31 10.56 31 16 C20.77 16 10.54 16 0 16 C0 10.72 0 5.44 0 0 Z " fill="#F2EBEB" transform="translate(36,458)"/>
 <path d="M0 0 C3.09714275 0.24777142 4.63497631 0.4468794 7.125 2.25 C10.2833823 6.40412845 10.61417153 10.12838767 10.5625 15.1875 C10.5924707 16.22293945 10.5924707 16.22293945 10.62304688 17.27929688 C10.61819071 22.40254618 9.34735324 25.31956914 6.125 29.25 C3.03326248 30.79586876 0.53070448 30.54359521 -2.875 30.25 C-5.84270563 28.00416871 -7.50084951 25.67660505 -8.875 22.25 C-10.2145464 9.3218196 -10.2145464 9.3218196 -7 4.5 C-2.99605263 0.26052632 -2.99605263 0.26052632 0 0 Z " fill="#141414" transform="translate(149.875,379.75)"/>
 <path d="M0 0 C3.49052425 2.22124271 5.4865328 4.17260961 7 8 C7.7467786 14.87618221 7.57421374 21.00042693 4 27 C1.68175882 29.47811989 0.41517264 29.92933232 -2.9375 30.5 C-7.01103263 29.83493345 -8.40263771 28.11683475 -11 25 C-12.54958148 21.90083704 -12.26681073 18.64928151 -12.3125 15.25 C-12.34150391 14.54617188 -12.37050781 13.84234375 -12.40039062 13.1171875 C-12.46264141 7.96473816 -11.38258227 5.09173217 -8 1 C-5.14675563 -0.42662219 -3.16545451 -0.31033868 0 0 Z " fill="#151515" transform="translate(270,393)"/>
 <path d="M0 0 C3.09725201 1.83019437 4.64084479 3.31589484 6.3125 6.5 C7.51731057 12.63358106 8.7419595 20.09584078 5.1875 25.625 C2.607186 28.42648377 0.93072798 29.85836748 -2.875 30.4375 C-7.02610555 29.85634522 -8.36573506 28.16111793 -11 25 C-12.55693041 21.88613918 -12.22567195 18.60255068 -12.25 15.1875 C-12.270625 14.47529297 -12.29125 13.76308594 -12.3125 13.02929688 C-12.34618584 8.4774978 -11.84122229 5.59135808 -9 2 C-5.48746854 -0.34168764 -4.13530644 -0.49623677 0 0 Z " fill="#121212" transform="translate(398,380)"/>
 <path d="M0 0 C3.47367595 2.718529 5.23711703 4.69516038 6 9 C6.53251418 15.68714919 6.41804535 21.14049369 3 27 C1.25 29 1.25 29 -1 30 C-4.5 30 -4.5 30 -8 29 C-12.57058565 24.30913578 -13.19248017 21.1931696 -13.3125 14.75 C-13.34988281 13.44546875 -13.38726562 12.1409375 -13.42578125 10.796875 C-12.93840983 6.45077392 -11.7421195 4.35769735 -9 1 C-5.86128812 -0.56935594 -3.46144178 -0.35201103 0 0 Z " fill="#141414" transform="translate(103,278)"/>
 <path d="M0 0 C3.7003611 0.06544047 4.31597115 0.1439226 7.125 2.8125 C9.56841852 7.08848241 9.84452343 9.69612633 9.9375 14.6875 C9.97488281 15.99203125 10.01226562 17.2965625 10.05078125 18.640625 C9.53469463 23.24279188 7.90293136 26.15956864 4.625 29.4375 C2.6640625 29.640625 2.6640625 29.640625 0.25 29.6875 C-0.54148438 29.71328125 -1.33296875 29.7390625 -2.1484375 29.765625 C-4.95824073 29.35154873 -5.69253406 28.70046589 -7.375 26.4375 C-10.28999609 20.73424679 -9.90098029 14.68645983 -9.375 8.4375 C-7.4229524 3.20246326 -5.78828899 0.16345667 0 0 Z " fill="#161616" transform="translate(150.375,162.5625)"/>
 <path d="M0 0 C3.67325861 3.39474258 4.83484311 4.91235494 5.59375 9.91015625 C5.58850087 11.29461361 5.55683027 12.67919958 5.5 14.0625 C5.50386719 15.10374023 5.50386719 15.10374023 5.5078125 16.16601562 C5.40096045 21.79177603 3.9273536 25.0726464 0 29 C-7.00869565 29.67826087 -7.00869565 29.67826087 -10.375 27.375 C-14.43015382 21.44823672 -14.85067063 14.99777862 -14 8 C-11.55724013 1.42067979 -7.22179552 -2.06894682 0 0 Z " fill="#E8E8E8" transform="translate(260,99)"/>
 <path d="M0 0 C2.125 1.625 2.125 1.625 3 4 C2.6875 7.5625 2.6875 7.5625 2 11 C2 11.99 2 12.98 2 14 C2.66 14.66 3.32 15.32 4 16 C4.44482136 19.92925536 4.34111292 22.31777415 2.5625 25.875 C-0.58612695 28.4860565 -2.78478406 28.95903508 -6.80859375 29.2109375 C-10.14719082 28.88957522 -11.78607996 27.42147504 -14 25 C-15.54586876 21.90826248 -15.29359521 19.40570448 -15 16 C-13 13.5625 -13 13.5625 -11 12 C-11.515625 11.649375 -12.03125 11.29875 -12.5625 10.9375 C-14 9 -14 9 -13.9375 5.5 C-13 2 -13 2 -11.5 0 C-7.57649762 -1.56940095 -4.02982755 -1.10458411 0 0 Z " fill="#121212" transform="translate(250,394)"/>
 <path d="M0 0 C0.66 1.98 1.32 3.96 2 6 C7.445 5.01 7.445 5.01 13 4 C13 7.63 13 11.26 13 15 C0.79 15 -11.42 15 -24 15 C-24 11.37 -24 7.74 -24 4 C-23.10796875 3.79503906 -22.2159375 3.59007812 -21.296875 3.37890625 C-20.12640625 3.10949219 -18.9559375 2.84007812 -17.75 2.5625 C-16.58984375 2.29566406 -15.4296875 2.02882813 -14.234375 1.75390625 C-12.42070948 1.33115571 -10.60975515 0.8940764 -8.8125 0.40625 C-5.89055943 -0.24866771 -2.97947102 -0.05729752 0 0 Z " fill="#9C1D23" transform="translate(57,491)"/>
 <path d="M0 0 C2.93012878 1.82319124 4.6282104 2.97042881 5.8125 6.25 C5.874375 6.8275 5.93625 7.405 6 8 C4.68 8 3.36 8 2 8 C0.25 6 0.25 6 -1 4 C-4.93075644 4.57452746 -4.93075644 4.57452746 -8 7 C-8.16687448 9.58354218 -8.16687448 9.58354218 -8 12 C-7.34 11.67 -6.68 11.34 -6 11 C-1.7106322 10.51441119 0.27976055 10.4718244 3.8125 13.0625 C6.33698274 16.45251968 7.47459311 18.79674489 8 23 C6.01059706 26.31567157 4.21744652 27.85503565 1 30 C-2.0169088 30.34061873 -4.09407815 30.57212107 -7 30 C-9.69105198 27.82425584 -11.45532928 26.08934144 -13 23 C-13.17603147 20.58750308 -13.26744968 18.16849105 -13.3125 15.75 C-13.34988281 14.44546875 -13.38726562 13.1409375 -13.42578125 11.796875 C-12.93549926 7.42481905 -11.76868372 5.37230666 -9 2 C-5.48746854 -0.34168764 -4.13530644 -0.49623677 0 0 Z " fill="#161616" transform="translate(376,380)"/>
 <path d="M0 0 C0 0.99 0 1.98 0 3 C-0.90363281 3.44730469 -1.80726562 3.89460938 -2.73828125 4.35546875 C-3.93005363 4.96543099 -5.12143984 5.57614818 -6.3125 6.1875 C-8.07013672 7.07501953 -8.07013672 7.07501953 -9.86328125 7.98046875 C-13.09531751 10.06136881 -14.36279478 11.57782735 -16 15 C2.6777674 15.87098397 20.18301189 13.54465874 36 3 C38.41015625 2.98828125 38.41015625 2.98828125 41.0625 3.3125 C41.94035156 3.41175781 42.81820312 3.51101563 43.72265625 3.61328125 C46 4 46 4 48 5 C48 5.99 48 6.98 48 8 C48.9075 8.226875 49.815 8.45375 50.75 8.6875 C54.51628476 10.20849961 55.82501689 11.61669295 58 15 C58.75 17.3125 58.75 17.3125 59 19 C58.34 19 57.68 19 57 19 C56.13375 17.6078125 56.13375 17.6078125 55.25 16.1875 C52.78228833 12.69157513 50.90285207 11.5966213 47 10 C46.690625 10.9590625 46.690625 10.9590625 46.375 11.9375 C45 14 45 14 42.3125 14.75 C38.85970515 15.01058829 35.46132433 15.06922649 32 15 C32.33 14.34 32.66 13.68 33 13 C34.98 13 36.96 13 39 13 C39 12.34 39 11.68 39 11 C35.53058454 11.45822468 32.32604951 11.89131683 29 13 C28.34 13.99 27.68 14.98 27 16 C27 15.34 27 14.68 27 14 C25.12634766 14.433125 25.12634766 14.433125 23.21484375 14.875 C13.23900512 17.05001547 3.60224353 18.40495248 -6.625 18.4375 C-7.6137915 18.44716797 -8.60258301 18.45683594 -9.62133789 18.46679688 C-16.50720681 18.38492974 -16.50720681 18.38492974 -18.79467773 16.59814453 C-20 15 -20 15 -19.87109375 12.99609375 C-17.15566898 6.77375268 -6.71874908 0 0 0 Z " fill="#0E0D0E" transform="translate(31,475)"/>
 <path d="M0 0 C0.70210098 0.00091141 1.40420197 0.00182281 2.12757874 0.00276184 C2.8501033 -0.00152328 3.57262787 -0.00580841 4.31704712 -0.01022339 C5.8460841 -0.01596928 7.37514843 -0.01646503 8.90419006 -0.01213074 C11.24410172 -0.00897362 13.58274565 -0.03241449 15.92250061 -0.05778503 C17.40752505 -0.0600583 18.8925529 -0.0607614 20.37757874 -0.05973816 C21.07765549 -0.06894791 21.77773224 -0.07815765 22.49902344 -0.08764648 C25.30820653 -0.06089154 27.35125553 0.0110802 29.76576233 1.52082825 C31.1561728 3.87427685 31.16153074 5.46352681 31.11195374 8.19026184 C31.09745178 9.59695129 31.09745178 9.59695129 31.08265686 11.03205872 C31.05752014 12.00852356 31.03238342 12.9849884 31.00648499 13.99104309 C30.98618225 15.4731427 30.98618225 15.4731427 30.96546936 16.98518372 C30.93010702 19.4251854 30.88075531 21.86409028 30.81898499 24.30354309 C28.17898499 24.96354309 25.53898499 25.62354309 22.81898499 26.30354309 C23.14898499 25.31354309 23.47898499 24.32354309 23.81898499 23.30354309 C24.80898499 23.30354309 25.79898499 23.30354309 26.81898499 23.30354309 C26.81898499 18.02354309 26.81898499 12.74354309 26.81898499 7.30354309 C16.58898499 7.30354309 6.35898499 7.30354309 -4.18101501 7.30354309 C-4.18101501 8.95354309 -4.18101501 10.60354309 -4.18101501 12.30354309 C-5.17101501 12.96354309 -6.16101501 13.62354309 -7.18101501 14.30354309 C-7.23490589 12.34550802 -7.27375719 10.387054 -7.30601501 8.42854309 C-7.32921814 7.33799622 -7.35242126 6.24744934 -7.37632751 5.12385559 C-7.02292464 0.02071806 -4.53714678 0.06644864 0 0 Z " fill="#D83636" transform="translate(40.18101501464844,450.6964569091797)"/>
 <path d="M0 0 C2.2133343 2.93239109 3.9321955 6.18570617 5.75 9.375 C6.52923828 10.68984375 6.52923828 10.68984375 7.32421875 12.03125 C7.81019531 12.87429688 8.29617188 13.71734375 8.796875 14.5859375 C9.46734863 15.74681885 9.46734863 15.74681885 10.15136719 16.93115234 C11 19 11 19 10 22 C8.33729713 23.33827304 6.67083819 24.67189785 5 26 C5 26.66 5 27.32 5 28 C3.71086513 28.67154933 2.41859796 29.33708859 1.125 30 C0.40570313 30.37125 -0.31359375 30.7425 -1.0546875 31.125 C-3 32 -3 32 -5 32 C-5.33 30.35 -5.66 28.7 -6 27 C-4.02 26.01 -2.04 25.02 0 24 C-1.82340974 18.96163099 -4.53440122 14.49560347 -7.25390625 9.90820312 C-10 5.20564332 -10 5.20564332 -10 3 C-3.375 -1.125 -3.375 -1.125 0 0 Z " fill="#393939" transform="translate(345,399)"/>
 <path d="M0 0 C3.3 0 6.6 0 10 0 C10 7.59 10 15.18 10 23 C13.3 23 16.6 23 20 23 C20 24.65 20 26.3 20 28 C16.7 28 13.4 28 10 28 C10 27.34 10 26.68 10 26 C6.7 26 3.4 26 0 26 C0 17.42 0 8.84 0 0 Z " fill="#363636" transform="translate(251,422)"/>
 <path d="M0 0 C4.65557722 1.70460111 8.91757159 3.99060594 13.25 6.375 C13.9821875 6.76171875 14.714375 7.1484375 15.46875 7.546875 C16.51289063 8.12308594 16.51289063 8.12308594 17.578125 8.7109375 C18.21137695 9.05431152 18.84462891 9.39768555 19.49707031 9.75146484 C21.45750303 11.38006343 21.66876443 12.50394544 22 15 C21.68801877 20.61566222 20.29744437 23.63886389 17 28 C15.0625 27.625 15.0625 27.625 13 27 C12.67 26.34 12.34 25.68 12 25 C12.66 23.35 13.32 21.7 14 20 C8.06 16.37 2.12 12.74 -4 9 C-2 3 -2 3 0 0 Z " fill="#383838" transform="translate(402,335)"/>
 <path d="M0 0 C1.65 0 3.3 0 5 0 C5.33 1.98 5.66 3.96 6 6 C6.40476562 5.5153125 6.80953125 5.030625 7.2265625 4.53125 C9.95699622 2.17369489 12.27947638 2.45703829 15.765625 2.59375 C18 3 18 3 21.125 5 C23.05919712 8.09471539 23.79199396 10.03119966 23.125 13.671875 C20.96436209 18.14319513 17.08245365 21.36236469 13.46875 24.6796875 C10.98096632 26.7501787 10.98096632 26.7501787 10 29 C14.29 29 18.58 29 23 29 C23 29.99 23 30.98 23 32 C16.73 32 10.46 32 4 32 C3.67 28.37 3.34 24.74 3 21 C4.65 20.67 6.3 20.34 8 20 C8 20.99 8 21.98 8 23 C9.29243468 21.8758824 10.58392075 20.75067408 11.875 19.625 C12.59429687 18.99851562 13.31359375 18.37203125 14.0546875 17.7265625 C17.38706509 15.01992767 17.38706509 15.01992767 18.1875 10.9375 C18.33187793 8.11166864 18.33187793 8.11166864 17 7 C14.32941149 6.85884839 11.67567762 6.95752893 9 7 C8.67 8.32 8.34 9.64 8 11 C5.69 11 3.38 11 1 11 C-0.28317892 7.15046324 -0.06643637 4.05261865 0 0 Z " fill="#111111" transform="translate(63,275)"/>
 <path d="M0 0 C-0.1875 1.875 -0.1875 1.875 -1 4 C-1.74636719 4.20753906 -2.49273437 4.41507813 -3.26171875 4.62890625 C-7.3820445 6.69200802 -8.6035929 10.05105247 -10.625 14.0625 C-11.37944113 15.53697363 -12.14210884 17.00727525 -12.9140625 18.47265625 C-13.2435791 19.12500244 -13.5730957 19.77734863 -13.91259766 20.44946289 C-15 22 -15 22 -18 23 C-20.51698632 21.92745123 -22.66805545 20.45196548 -25 19 C-23.30049576 14.3740767 -21.04857181 10.12487082 -18.6875 5.8125 C-18.30916016 5.08869141 -17.93082031 4.36488281 -17.54101562 3.61914062 C-15.75502015 0.3705025 -14.6430292 -1.61998425 -11.40234375 -3.53515625 C-6.90007262 -4.40632741 -3.67376369 -2.44917579 0 0 Z " fill="#383838" transform="translate(360,91)"/>
 <path d="M0 0 C8.58 0 17.16 0 26 0 C26 1.65 26 3.3 26 5 C26.66 5 27.32 5 28 5 C28 8.3 28 11.6 28 15 C26.35 15 24.7 15 23 15 C23 13.35 23 11.7 23 10 C15.41 10 7.82 10 0 10 C0 6.7 0 3.4 0 0 Z " fill="#363636" transform="translate(422,251)"/>
 <path d="M0 0 C2.97 0 5.94 0 9 0 C8.67 9.24 8.34 18.48 8 28 C4.7 28 1.4 28 -2 28 C-2 19.42 -2 10.84 -2 2 C-1.34 2 -0.68 2 0 2 C0 1.34 0 0.68 0 0 Z " fill="#363636" transform="translate(253,62)"/>
 <path d="M0 0 C0.66902344 -0.020625 1.33804688 -0.04125 2.02734375 -0.0625 C6.4750066 -0.09745216 9.16874357 0.61264061 12.75 3.25 C12.33318127 8.1128852 10.38015855 10.11486307 6.75 13.25 C5.08675599 14.25568242 3.42063747 15.25664799 1.75 16.25 C1.09 17.24 0.43 18.23 -0.25 19.25 C-0.25 18.26 -0.25 17.27 -0.25 16.25 C-4.22803637 14.44180165 -7.93161379 13.8097908 -12.25 13.25 C-13.24 12.92 -14.23 12.59 -15.25 12.25 C-11.785 11.755 -11.785 11.755 -8.25 11.25 C-8.26160156 10.53972656 -8.27320312 9.82945312 -8.28515625 9.09765625 C-8.29869141 7.71900391 -8.29869141 7.71900391 -8.3125 6.3125 C-8.32410156 5.39597656 -8.33570312 4.47945313 -8.34765625 3.53515625 C-8.13910578 -1.34492483 -3.8698604 0.02915149 0 0 Z " fill="#E9E8E8" transform="translate(79.25,463.75)"/>
 <path d="M0 0 C0.66 0.66 1.32 1.32 2 2 C2.99 2.33 3.98 2.66 5 3 C6.8125 5.8125 6.8125 5.8125 8 9 C7.1875 11.375 7.1875 11.375 6 13 C5.01 13 4.02 13 3 13 C2.67 12.01 2.34 11.02 2 10 C-8.46944729 13.67566874 -8.46944729 13.67566874 -16 21.015625 C-16.3423408 23.12339571 -16.3423408 23.12339571 -16 26 C-16.33 26 -16.66 26 -17 26 C-17.33 20.06 -17.66 14.12 -18 8 C-15.586875 6.494375 -13.17375 4.98875 -10.6875 3.4375 C-9.55380981 2.71904907 -9.55380981 2.71904907 -8.3972168 1.98608398 C-7.79562744 1.61813721 -7.19403809 1.25019043 -6.57421875 0.87109375 C-5.96151123 0.48880615 -5.34880371 0.10651855 -4.7175293 -0.28735352 C-3 -1 -3 -1 0 0 Z " fill="#383838" transform="translate(421,157)"/>
 <path d="M0 0 C0.99 0 1.98 0 3 0 C3 6.27 3 12.54 3 19 C4.32 19 5.64 19 7 19 C7 19.99 7 20.98 7 22 C5.68 22 4.36 22 3 22 C3 24.31 3 26.62 3 29 C2.01 29 1.02 29 0 29 C0 26.69 0 24.38 0 22 C-4.29 22 -8.58 22 -13 22 C-12.1474387 17.73719352 -11.83761353 16.32111705 -9.53125 13.046875 C-8.79841797 11.995 -8.79841797 11.995 -8.05078125 10.921875 C-7.53902344 10.20515625 -7.02726562 9.4884375 -6.5 8.75 C-5.98824219 8.0178125 -5.47648437 7.285625 -4.94921875 6.53125 C-1.22505823 1.22505823 -1.22505823 1.22505823 0 0 Z " fill="#020202" transform="translate(426,278)"/>
 <path d="M0 0 C0.99 0 1.98 0 3 0 C3 6.27 3 12.54 3 19 C4.32 19 5.64 19 7 19 C7 19.99 7 20.98 7 22 C5.68 22 4.36 22 3 22 C3 24.31 3 26.62 3 29 C2.01 29 1.02 29 0 29 C0 26.69 0 24.38 0 22 C-4.29 22 -8.58 22 -13 22 C-11.82666132 16.13330659 -9.53999106 12.95809056 -6.125 8.1875 C-5.58230469 7.39923828 -5.03960937 6.61097656 -4.48046875 5.79882812 C-3.95324219 5.05439453 -3.42601563 4.30996094 -2.8828125 3.54296875 C-2.40215332 2.86258545 -1.92149414 2.18220215 -1.42626953 1.48120117 C-0.95560059 0.99240479 -0.48493164 0.5036084 0 0 Z " fill="#010101" transform="translate(130,163)"/>
 <path d="M0 0 C2.5 0.5 2.5 0.5 4.1328125 2.03125 C6.03654858 5.46885344 5.93736171 8.67514859 5.875 12.5 C5.88660156 13.2115625 5.89820313 13.923125 5.91015625 14.65625 C5.89222911 17.85923285 5.69689714 20.14446002 4.1328125 22.96875 C2.5 24.5 2.5 24.5 0 25 C-2.5 24.5 -2.5 24.5 -4.1328125 22.96875 C-6.03654858 19.53114656 -5.93736171 16.32485141 -5.875 12.5 C-5.88660156 11.7884375 -5.89820313 11.076875 -5.91015625 10.34375 C-5.89222911 7.14076715 -5.69689714 4.85553998 -4.1328125 2.03125 C-2.5 0.5 -2.5 0.5 0 0 Z " fill="#ECECEC" transform="translate(150.5,382.5)"/>
 <path d="M0 0 C2.9375 0.875 2.9375 0.875 4.9375 3.875 C5.13288667 6.40066006 5.21651721 8.79042102 5.1875 11.3125 C5.19265625 12.63121094 5.1978125 13.94992187 5.203125 15.30859375 C4.82741712 20.3530245 4.82741712 20.3530245 2.9375 22.875 C-0.1875 23.625 -0.1875 23.625 -3.0625 23.875 C-6.29333772 20.66980385 -6.45007296 17.95165352 -6.47265625 13.62695312 C-6.46105469 12.86318359 -6.44945312 12.09941406 -6.4375 11.3125 C-6.44910156 10.54486328 -6.46070313 9.77722656 -6.47265625 8.98632812 C-6.4437346 3.45747281 -6.4437346 3.45747281 -4.73046875 0.83984375 C-3.0625 -0.125 -3.0625 -0.125 0 0 Z " fill="#EEEEEE" transform="translate(268.0625,396.125)"/>
 <path d="M0 0 C2.5 0.5625 2.5 0.5625 4.12890625 2.09765625 C6.03794297 5.52957127 5.97560635 8.73800828 5.9375 12.5625 C5.95748047 13.2740625 5.97746094 13.985625 5.99804688 14.71875 C5.99476323 18.23881251 5.76326653 20.20927028 3.63671875 23.0625 C1.5 24.5625 1.5 24.5625 -1.125 24.5625 C-3.5 23.5625 -3.5 23.5625 -4.62890625 21.93359375 C-5.79487106 18.7598689 -5.80169106 16.0009931 -5.8125 12.625 C-5.82925781 11.41972656 -5.84601563 10.21445312 -5.86328125 8.97265625 C-5.40139334 4.63686976 -4.58178409 1.03090142 0 0 Z " fill="#EFEFEF" transform="translate(99.5,280.4375)"/>
 <path d="M0 0 C3.67325861 3.39474258 4.83484311 4.91235494 5.59375 9.91015625 C5.58850087 11.29461361 5.55683027 12.67919958 5.5 14.0625 C5.50386719 15.10374023 5.50386719 15.10374023 5.5078125 16.16601562 C5.40096045 21.79177603 3.9273536 25.0726464 0 29 C-7.00869565 29.67826087 -7.00869565 29.67826087 -10.375 27.375 C-14.43015382 21.44823672 -14.85067063 14.99777862 -14 8 C-11.55724013 1.42067979 -7.22179552 -2.06894682 0 0 Z M-8.6640625 4.6015625 C-10.46061467 7.82695149 -10.39853542 10.26205165 -10.375 13.9375 C-10.38273438 15.14277344 -10.39046875 16.34804687 -10.3984375 17.58984375 C-9.97364073 21.2256043 -9.26399052 23.14609645 -7 26 C-4 26.83333333 -4 26.83333333 -1 26 C1.95806765 22.20867386 2.40823463 19.24147419 2.375 14.5 C2.38273437 13.3965625 2.39046875 12.293125 2.3984375 11.15625 C1.95830707 7.66972661 1.15626047 5.75859614 -1 3 C-4.38376818 2.36554347 -6.11638296 2.14957045 -8.6640625 4.6015625 Z " fill="#0F0F0F" transform="translate(260,99)"/>
 <path d="M0 0 C0 0.66 0 1.32 0 2 C-1.65 2.33 -3.3 2.66 -5 3 C-2.69 3.33 -0.38 3.66 2 4 C1.34 4.99 0.68 5.98 0 7 C0.495 7.495 0.495 7.495 1 8 C1 12.29 1 16.58 1 21 C-11.54 21 -24.08 21 -37 21 C-37 20.67 -37 20.34 -37 20 C-24.79 20 -12.58 20 0 20 C0 16.37 0 12.74 0 9 C-1.98 9.99 -1.98 9.99 -4 11 C-6.33203812 11.0777346 -8.66839059 11.08967728 -11 11 C-11.66 9.02 -12.32 7.04 -13 5 C-16.60481752 5.64223504 -20.20873183 6.28940479 -23.8125 6.9375 C-24.83666016 7.11990234 -25.86082031 7.30230469 -26.91601562 7.49023438 C-28.39038086 7.75610352 -28.39038086 7.75610352 -29.89453125 8.02734375 C-30.80050049 8.18968506 -31.70646973 8.35202637 -32.63989258 8.51928711 C-35.13561463 8.97824776 -35.13561463 8.97824776 -38 10 C-38 9.34 -38 8.68 -38 8 C-42.95 8 -47.9 8 -53 8 C-53 7.67 -53 7.34 -53 7 C-51.71867187 6.96261719 -50.43734375 6.92523438 -49.1171875 6.88671875 C-39.81369432 6.55396805 -31.08228134 5.96794634 -22.04296875 3.62109375 C-18.63709036 2.9259273 -15.46712338 3 -12 3 C-9.27018168 1.64599355 -9.27018168 1.64599355 -7 0 C-3.86650268 -1.04449911 -3.01031744 -0.93423645 0 0 Z " fill="#BEA5A5" transform="translate(70,486)"/>
 <path d="M0 0 C2.5 0.4375 2.5 0.4375 4.1328125 1.46875 C6.26754371 4.54276295 5.93309345 7.76997869 5.875 11.375 C5.88660156 12.09107422 5.89820313 12.80714844 5.91015625 13.54492188 C5.89226796 16.76183355 5.70395298 19.06921918 4.1328125 21.90625 C2.5 23.4375 2.5 23.4375 0 24 C-2.5 23.4375 -2.5 23.4375 -4.1328125 21.34375 C-5.79117155 17.81855248 -5.89992517 15.25917275 -5.875 11.375 C-5.88273438 10.16714844 -5.89046875 8.95929688 -5.8984375 7.71484375 C-5.38070989 3.45628036 -4.44700076 0.77822513 0 0 Z " fill="#F2F2F2" transform="translate(150.5,165.5625)"/>
 <path d="M0 0 C3.125 -0.1875 3.125 -0.1875 6 0 C9.1927738 5.98645087 9.74808073 11.2568834 9 18 C7.875 21.1875 7.875 21.1875 6 23 C2.9375 23.5 2.9375 23.5 0 23 C-2.56628339 19.15057491 -2.29464462 15.95702113 -2.25 11.5 C-2.25773437 10.72785156 -2.26546875 9.95570313 -2.2734375 9.16015625 C-2.25993153 5.26368532 -2.20675169 3.31012753 0 0 Z " fill="#EFEFEF" transform="translate(392,166)"/>
 <path d="M0 0 C3.125 2.0625 3.125 2.0625 5 5 C5.3723653 9.93384025 3.83339289 12.54963733 0.75 16.1875 C-1.97096612 19.08202569 -4.84166252 21.58480075 -8 24 C-8.33 24.66 -8.66 25.32 -9 26 C-4.38 26 0.24 26 5 26 C5 26.99 5 27.98 5 29 C-1.27 29 -7.54 29 -14 29 C-12.66719891 22.33599454 -9.94939139 19.74924255 -4.8125 15.625 C-2.03549686 13.27125756 -0.49115942 11.77615944 0.0625 8.125 C0.36364533 5.1327033 0.36364533 5.1327033 -1 4 C-3.33297433 3.95907063 -5.66705225 3.95758277 -8 4 C-8.66 5.32 -9.32 6.64 -10 8 C-11.32 7.67 -12.64 7.34 -14 7 C-11.53085546 -0.21749942 -7.08521571 -1.18912711 0 0 Z " fill="#0D0D0D" transform="translate(377,163)"/>
 <path d="M0 0 C3.29714793 0.32971479 4.6226839 0.6226839 7 3 C7.1953125 6.2578125 7.1953125 6.2578125 7.125 10.125 C7.10695312 11.40632813 7.08890625 12.68765625 7.0703125 14.0078125 C7.04710937 14.99523437 7.02390625 15.98265625 7 17 C6.67 16.34 6.34 15.68 6 15 C5.01 15.99 4.02 16.98 3 18 C3.66 19.65 4.32 21.3 5 23 C2.6875 23.6875 2.6875 23.6875 0 24 C-2.0179154 22.48656345 -2.87469934 21.25060133 -4 19 C-4.47157734 13.0010975 -4.11469895 7.63919721 -2 2 C-1.34 1.34 -0.68 0.68 0 0 Z " fill="#EEEEEE" transform="translate(126,383)"/>
 <path d="M0 0 C2.375 0.125 2.375 0.125 5 1 C7.92228171 4.82679748 8.40835365 7.74154558 8.375 12.5 C8.38273437 13.6034375 8.39046875 14.706875 8.3984375 15.84375 C7.95958189 19.32017483 7.12266896 21.2324053 5 24 C2.5 24.5625 2.5 24.5625 0 24 C-2.15394709 22.2174231 -2.8539609 20.79759819 -3.35546875 18.05859375 C-3.5 15.9375 -3.5 15.9375 -3 12 C-0.625 10.3125 -0.625 10.3125 2 9 C3.34689915 6.42900598 3.34689915 6.42900598 4 4 C-0.04622502 3.63019987 -0.04622502 3.63019987 -3 6 C-1.125 1.125 -1.125 1.125 0 0 Z " fill="#EEEEEE" transform="translate(393,383)"/>
 <path d="M0 0 C1.48046875 1 1.48046875 1 3 3 C3.27164428 5.75733549 3.37364021 8.25113595 3.3125 11 C3.31572266 11.72445313 3.31894531 12.44890625 3.32226562 13.1953125 C3.28385299 16.9807029 3.14469404 18.78295894 1 22 C-1.625 22.1875 -1.625 22.1875 -4 22 C-3.67 19.69 -3.34 17.38 -3 15 C-4.65 14.67 -6.3 14.34 -8 14 C-8 10.04 -8 6.08 -8 2 C-7.34 1.67 -6.68 1.34 -6 1 C-6 1.99 -6 2.98 -6 4 C-4.35 4 -2.7 4 -1 4 C-0.67 2.68 -0.34 1.36 0 0 Z " fill="#EDEDED" transform="translate(449,282)"/>
 <path d="M0 0 C0.99 0 1.98 0 3 0 C3 9.57 3 19.14 3 29 C1.68 29 0.36 29 -1 29 C-1.33 22.07 -1.66 15.14 -2 8 C-3.98 8.66 -5.96 9.32 -8 10 C-7.8125 8.1875 -7.8125 8.1875 -7 6 C-5.36368108 4.95107762 -3.69514137 3.95093297 -2 3 C-1.34 2.01 -0.68 1.02 0 0 Z " fill="#141414" transform="translate(55,278)"/>
 <path d="M0 0 C0.99 0 1.98 0 3 0 C3 9.57 3 19.14 3 29 C1.68 29 0.36 29 -1 29 C-1.33 22.07 -1.66 15.14 -2 8 C-3.98 8.66 -5.96 9.32 -8 10 C-7.8125 8.1875 -7.8125 8.1875 -7 6 C-5.36368108 4.95107762 -3.69514137 3.95093297 -2 3 C-1.34 2.01 -0.68 1.02 0 0 Z " fill="#181818" transform="translate(106,163)"/>
 <path d="M0 0 C0.66 0 1.32 0 2 0 C2 9.57 2 19.14 2 29 C1.01 29 0.02 29 -1 29 C-1 21.74 -1 14.48 -1 7 C-2.98 8.32 -4.96 9.64 -7 11 C-7.66 11 -8.32 11 -9 11 C-9 9.68 -9 8.36 -9 7 C-6.1875 4.9375 -6.1875 4.9375 -3 3 C-2.4225 2.4225 -1.845 1.845 -1.25 1.25 C-0.8375 0.8375 -0.425 0.425 0 0 Z " fill="#070707" transform="translate(107,380)"/>
 <path d="M0 0 C1.8125 1.125 1.8125 1.125 3 3 C3.39769128 6.18153026 3.55198782 8.12844028 1.8125 10.875 C-0.65507108 12.40659584 -2.14519831 12.42822025 -5 12 C-6.8125 10.875 -6.8125 10.875 -8 9 C-8.39769128 5.81846974 -8.55198782 3.87155972 -6.8125 1.125 C-4.34492892 -0.40659584 -2.85480169 -0.42822025 0 0 Z " fill="#EDEDED" transform="translate(247,408)"/>
 <path d="M0 0 C1 1 1 1 1.25 3.375 C1 6 1 6 -0.375 7.8125 C-2 9 -2 9 -4 9 C-3.67 9.99 -3.34 10.98 -3 12 C-5.375 11.6875 -5.375 11.6875 -8 11 C-10.31282587 7.53076119 -10.42478586 6.07794425 -10 2 C-7.64880534 -2.28747261 -4.22461819 -0.93880404 0 0 Z " fill="#EDEDED" transform="translate(377,395)"/>
 <path d="M0 0 C0.66 2.97 1.32 5.94 2 9 C6.29 9 10.58 9 15 9 C15 9.99 15 10.98 15 12 C8.73 12 2.46 12 -4 12 C-4.33 8.37 -4.66 4.74 -5 1 C-3 0 -3 0 0 0 Z " fill="#6A6A6A" transform="translate(71,295)"/>
 <path d="M0 0 C2.39652528 -0.08139142 4.79025436 -0.14067009 7.1875 -0.1875 C7.86103516 -0.21263672 8.53457031 -0.23777344 9.22851562 -0.26367188 C13.70864748 -0.32923478 16.39440999 0.33256351 20 3 C19.58443583 7.84824868 17.62551755 9.88036862 14 13 C11.54650543 14.63566305 10.66923445 15.11153908 7.75 14.625 C7.1725 14.41875 6.595 14.2125 6 14 C8.51120498 11.9192873 10.90966016 10.05132945 13.75 8.4375 C16.30341851 7.13840819 16.30341851 7.13840819 17 4 C11.39 3.67 5.78 3.34 0 3 C0 2.01 0 1.02 0 0 Z " fill="#151515" transform="translate(72,464)"/>
 <path d="M0 0 C0 0.66 0 1.32 0 2 C-1.65 2.33 -3.3 2.66 -5 3 C-2.69 3.33 -0.38 3.66 2 4 C-1.222107 7.8665284 -4.14922412 8.88059018 -9 10 C-11.1519437 6.77208445 -11.20086443 5.71599191 -11 2 C-3.57142857 -1.57142857 -3.57142857 -1.57142857 0 0 Z " fill="#2C2C2D" transform="translate(70,486)"/>
 <path d="M0 0 C0.33 0 0.66 0 1 0 C1.06058594 0.60328125 1.12117188 1.2065625 1.18359375 1.828125 C1.26738281 2.62734375 1.35117188 3.4265625 1.4375 4.25 C1.55931641 5.43335938 1.55931641 5.43335938 1.68359375 6.640625 C1.99511197 9.29618363 1.99511197 9.29618363 3 13 C5.97 13 8.94 13 12 13 C12 13.99 12 14.98 12 16 C8.90826248 17.54586876 6.40570448 17.29359521 3 17 C0.09282927 14.78136971 -0.83981643 13.48055071 -2 10 C-2.23188622 7.27668512 -2.13093368 4.74960731 -2 2 C-1.34 1.34 -0.68 0.68 0 0 Z " fill="#0C0C0C" transform="translate(121,393)"/>
 <path d="M0 0 C0.33 0 0.66 0 1 0 C1 2.64 1 5.28 1 8 C2.65 8.33 4.3 8.66 6 9 C5.67 11.31 5.34 13.62 5 16 C5.99 16.33 6.98 16.66 8 17 C6.68 17 5.36 17 4 17 C4 17.66 4 18.32 4 19 C5.65 19 7.3 19 9 19 C9 19.33 9 19.66 9 20 C2.12205567 20.31263383 2.12205567 20.31263383 -1 18 C-1.75 15.875 -1.75 15.875 -2 14 C-1.34 14 -0.68 14 0 14 C0 9.38 0 4.76 0 0 Z " fill="#656565" transform="translate(440,288)"/>
 <path d="M0 0 C0.99 0 1.98 0 3 0 C2.525625 1.19625 2.05125 2.3925 1.5625 3.625 C-0.57734901 9.93351712 -0.7273652 16.39095639 -1 23 C-1.66 23 -2.32 23 -3 23 C-4.51578428 19.96843143 -4.24971927 17.12033386 -4.3125 13.75 C-4.34988281 12.44546875 -4.38726562 11.1409375 -4.42578125 9.796875 C-3.93744052 5.44213015 -2.84436761 3.30049143 0 0 Z " fill="#0E0E0E" transform="translate(441,279)"/>
 <path d="M0 0 C0.66 0.66 1.32 1.32 2 2 C1.1646875 1.91298828 1.1646875 1.91298828 0.3125 1.82421875 C-5.33162651 1.49052884 -8.25301675 2.40780817 -12.83203125 5.625 C-18.69381255 9.34274237 -26.05889831 11.70463397 -33 12 C-33.66 11.34 -34.32 10.68 -35 10 C-34.154375 9.81824219 -33.30875 9.63648438 -32.4375 9.44921875 C-22.99431548 7.41084598 -22.99431548 7.41084598 -14 4 C-12.80767387 1.94996045 -12.80767387 1.94996045 -12 0 C-7.92320357 -1.51423867 -4.18949523 -0.86951788 0 0 Z " fill="#CBBCBC" transform="translate(74,477)"/>
 <path d="M0 0 C2.5 0.25 2.5 0.25 4.5 2.25 C4.75 4.75 4.75 4.75 4.5 7.25 C2.5 9.25 2.5 9.25 0 9.5 C-2.5 9.25 -2.5 9.25 -4.5 7.25 C-4.75 4.75 -4.75 4.75 -4.5 2.25 C-2.5 0.25 -2.5 0.25 0 0 Z " fill="#ECECEC" transform="translate(244.5,395.75)"/>
 <path d="M0 0 C0.33 0 0.66 0 1 0 C1.03738281 0.83144531 1.07476562 1.66289062 1.11328125 2.51953125 C1.21189453 4.14955078 1.21189453 4.14955078 1.3125 5.8125 C1.37050781 6.89144531 1.42851562 7.97039062 1.48828125 9.08203125 C2.03068507 12.17497517 2.55289624 13.13022903 5 15 C4.34 16.32 3.68 17.64 3 19 C-0.37503669 17.8141763 -2.64722731 16.72426311 -5 14 C-4.34 12.35 -3.68 10.7 -3 9 C-2.34 9 -1.68 9 -1 9 C-0.67 6.03 -0.34 3.06 0 0 Z " fill="#727272" transform="translate(133,389)"/>
 <path d="M0 0 C0.33 0 0.66 0 1 0 C1 4.29 1 8.58 1 13 C-1.97 13 -4.94 13 -8 13 C-6.44233928 9.88467855 -4.85577442 7.13448144 -2.9375 4.25 C-2.41027344 3.45078125 -1.88304687 2.6515625 -1.33984375 1.828125 C-0.89769531 1.22484375 -0.45554687 0.6215625 0 0 Z " fill="#D9D9D9" transform="translate(425,284)"/>
 <path d="M0 0 C0.33 0 0.66 0 1 0 C1 4.29 1 8.58 1 13 C-1.97 13 -4.94 13 -8 13 C-6.44233928 9.88467855 -4.85577442 7.13448144 -2.9375 4.25 C-2.41027344 3.45078125 -1.88304688 2.6515625 -1.33984375 1.828125 C-0.89769531 1.22484375 -0.45554688 0.6215625 0 0 Z " fill="#DADADA" transform="translate(129,169)"/>
 <path d="M0 0 C0 0.99 0 1.98 0 3 C-0.89203125 3.44730469 -1.7840625 3.89460938 -2.703125 4.35546875 C-3.87359375 4.96003906 -5.0440625 5.56460937 -6.25 6.1875 C-7.99023438 7.07501953 -7.99023438 7.07501953 -9.765625 7.98046875 C-13.01035399 10.00646499 -14.82777465 11.88683545 -17 15 C-17.33 14.34 -17.66 13.68 -18 13 C-18.66 13.66 -19.32 14.32 -20 15 C-19.25701514 10.73471653 -17.44108288 9.18653127 -14.1796875 6.52734375 C-4.86445013 0 -4.86445013 0 0 0 Z " fill="#0F0F0F" transform="translate(31,475)"/>
 <path d="M0 0 C2.5 1.3125 2.5 1.3125 5 3 C5 6 5 6 2.6875 8.625 C0 11 0 11 -3 12 C-3.66 10.02 -4.32 8.04 -5 6 C-4.360625 5.566875 -3.72125 5.13375 -3.0625 4.6875 C-0.73253997 3.08760823 -0.73253997 3.08760823 0 0 Z " fill="#656565" transform="translate(378,398)"/>
 <path d="M0 0 C3.16004039 1.47468552 5.40512667 2.5814559 6.8125 5.9375 C6.874375 6.618125 6.93625 7.29875 7 8 C6.02246356 9.02196992 5.0194119 10.01979625 4 11 C3.27802838 13.60611077 3.27802838 13.60611077 3 16 C2.67 16 2.34 16 2 16 C1.9175 14.96875 1.835 13.9375 1.75 12.875 C0.89746699 8.47024613 -0.34241489 6.51487063 -3 3 C-2.01 2.01 -1.02 1.02 0 0 Z " fill="#686868" transform="translate(116,384)"/>
 <path d="M0 0 C1.32 0.66 2.64 1.32 4 2 C2.83242263 5.32310483 1.85051143 7.83361132 -1 10 C-1.99 10 -2.98 10 -4 10 C-4 11.98 -4 13.96 -4 16 C-4.33 16 -4.66 16 -5 16 C-5.76681614 6.26995516 -5.76681614 6.26995516 -3.88671875 3.15625 C-2.5 1.8125 -2.5 1.8125 0 0 Z " fill="#717171" transform="translate(394,385)"/>
 <path d="M0 0 C1.65 0 3.3 0 5 0 C5 0.66 5 1.32 5 2 C5.66 2.33 6.32 2.66 7 3 C6.34 3 5.68 3 5 3 C5 5.31 5 7.62 5 10 C2 11 2 11 -1 10 C-1.125 2.25 -1.125 2.25 0 0 Z " fill="#737373" transform="translate(444,276)"/>
 <path d="M0 0 C1.65 0.33 3.3 0.66 5 1 C4.01 4.3 3.02 7.6 2 11 C-0.97 10.505 -0.97 10.505 -4 10 C-3.52449439 8.51965236 -3.04448784 7.04074979 -2.5625 5.5625 C-2.29566406 4.73878906 -2.02882813 3.91507813 -1.75390625 3.06640625 C-1 1 -1 1 0 0 Z " fill="#767676" transform="translate(79,175)"/>
 <path d="M0 0 C0 1.65 0 3.3 0 5 C-3.3 5.33 -6.6 5.66 -10 6 C-10.33 4.35 -10.66 2.7 -11 1 C-7.32589215 -0.17571451 -3.83070817 -0.07366746 0 0 Z " fill="#757575" transform="translate(222,65)"/>
 <path d="M0 0 C1.23556641 0.01740234 1.23556641 0.01740234 2.49609375 0.03515625 C3.32238281 0.04417969 4.14867187 0.05320313 5 0.0625 C5.63808594 0.07410156 6.27617187 0.08570313 6.93359375 0.09765625 C6.93359375 1.74765625 6.93359375 3.39765625 6.93359375 5.09765625 C3.46034194 6.25540685 0.57291927 6.16632277 -3.06640625 6.09765625 C-3.10912725 4.4315372 -3.10704457 2.7638274 -3.06640625 1.09765625 C-2.06640625 0.09765625 -2.06640625 0.09765625 0 0 Z " fill="#747474" transform="translate(235.06640625,61.90234375)"/>
 <path d="M0 0 C3.3 0 6.6 0 10 0 C10 1.65 10 3.3 10 5 C6.7 5.33 3.4 5.66 0 6 C0 4.02 0 2.04 0 0 Z " fill="#757575" transform="translate(281,443)"/>
 <path d="M0 0 C1.65 0 3.3 0 5 0 C5.33 3.3 5.66 6.6 6 10 C4.35 10.33 2.7 10.66 1 11 C-0.28317892 7.15046324 -0.06643637 4.05261865 0 0 Z " fill="#6F6F6F" transform="translate(63,275)"/>
 <path d="M0 0 C1.65 0 3.3 0 5 0 C5 3.63 5 7.26 5 11 C3.35 11 1.7 11 0 11 C0 7.37 0 3.74 0 0 Z " fill="#737373" transform="translate(445,237)"/>
 <path d="M0 0 C1.65 0.33 3.3 0.66 5 1 C4.34 4.3 3.68 7.6 3 11 C1.35 10.67 -0.3 10.34 -2 10 C-1.85950482 8.52031676 -1.71245174 7.04125484 -1.5625 5.5625 C-1.48128906 4.73878906 -1.40007812 3.91507813 -1.31640625 3.06640625 C-1 1 -1 1 0 0 Z " fill="#737373" transform="translate(66,214)"/>
 <path d="M0 0 C4.95 0.99 4.95 0.99 10 2 C10 3.65 10 5.3 10 7 C8.52031676 6.85950482 7.04125484 6.71245174 5.5625 6.5625 C4.73878906 6.48128906 3.91507812 6.40007812 3.06640625 6.31640625 C1 6 1 6 0 5 C0 3.35 0 1.7 0 0 Z " fill="#737373" transform="translate(293,65)"/>
 <path d="M0 0 C0.33 0.99 0.66 1.98 1 3 C7.93 3 14.86 3 22 3 C21.67 3.99 21.34 4.98 21 6 C17.70840684 6.05790353 14.41694397 6.09356261 11.125 6.125 C9.71927734 6.15013672 9.71927734 6.15013672 8.28515625 6.17578125 C7.38925781 6.18222656 6.49335938 6.18867188 5.5703125 6.1953125 C4.74289551 6.20578613 3.91547852 6.21625977 3.06298828 6.22705078 C1 6 1 6 -1 4 C-0.625 1.875 -0.625 1.875 0 0 Z " fill="#090909" transform="translate(13,487)"/>
 <path d="M0 0 C0.33 1.65 0.66 3.3 1 5 C-5.625 8 -5.625 8 -9 8 C-9.33 6.35 -9.66 4.7 -10 3 C-3.375 0 -3.375 0 0 0 Z " fill="#717171" transform="translate(330,431)"/>
 <path d="M0 0 C0.66 1.65 1.32 3.3 2 5 C0.71086513 5.67154933 -0.58140204 6.33708859 -1.875 7 C-2.59429687 7.37125 -3.31359375 7.7425 -4.0546875 8.125 C-6 9 -6 9 -8 9 C-8.33 7.35 -8.66 5.7 -9 4 C-2.25 0 -2.25 0 0 0 Z " fill="#6F6F6F" transform="translate(348,422)"/>
 <path d="M0 0 C2.625 0.375 2.625 0.375 5 1 C4.35455571 4.48539917 2.89865603 7.02819057 1 10 C-0.9375 9.625 -0.9375 9.625 -3 9 C-4 7 -4 7 -3.1875 4.5 C-2 2 -2 2 0 0 Z " fill="#6C6C6C" transform="translate(418,353)"/>
 <path d="M0 0 C1.65 0.33 3.3 0.66 5 1 C3.84414715 4.91211733 2.64465038 7.8745041 0 11 C-1.32 10.34 -2.64 9.68 -4 9 C-2.80100302 5.9168649 -1.52299523 2.93720508 0 0 Z " fill="#717171" transform="translate(428,335)"/>
 <path d="M0 0 C0.66 2.97 1.32 5.94 2 9 C0.35 9.33 -1.3 9.66 -3 10 C-3.99 6.7 -4.98 3.4 -6 0 C-4 -1 -4 -1 0 0 Z " fill="#727272" transform="translate(77,316)"/>
 <path d="M0 0 C3 1 3 1 4.8125 3.8125 C6 7 6 7 5.1875 9.375 C4.795625 9.91125 4.40375 10.4475 4 11 C3.01 11 2.02 11 1 11 C-0.32 8.03 -1.64 5.06 -3 2 C-2.01 1.34 -1.02 0.68 0 0 Z " fill="#6E6E6E" transform="translate(423,159)"/>
 <path d="M0 0 C0.99 0.99 1.98 1.98 3 3 C2 6 2 6 -0.3125 7.75 C-3 9 -3 9 -5.3125 8.6875 C-5.869375 8.460625 -6.42625 8.23375 -7 8 C-7 6.68 -7 5.36 -7 4 C-4.69 2.68 -2.38 1.36 0 0 Z " fill="#717171" transform="translate(162,85)"/>
 <path d="M0 0 C-0.125 1.8125 -0.125 1.8125 -1 4 C-6.03571429 7 -6.03571429 7 -9 7 C-9.66 5.35 -10.32 3.7 -11 2 C-6.89657963 -0.38570952 -4.61380251 -1.49270081 0 0 Z " fill="#727272" transform="translate(183,78)"/>
 <path d="M0 0 C3.3 0.99 6.6 1.98 10 3 C9.67 4.65 9.34 6.3 9 8 C7.51793505 7.745504 6.03931385 7.47088238 4.5625 7.1875 C3.73878906 7.03667969 2.91507812 6.88585937 2.06640625 6.73046875 C1.38449219 6.48941406 0.70257813 6.24835938 0 6 C-1 3 -1 3 0 0 Z " fill="#727272" transform="translate(313,70)"/>
 <path d="M0 0 C3.3 0.33 6.6 0.66 10 1 C10 2.65 10 4.3 10 6 C6.7 6 3.4 6 0 6 C0 4.02 0 2.04 0 0 Z " fill="#727272" transform="translate(273,62)"/>
 <path d="M0 0 C3.71888239 0.50712033 6.73454239 1.11608215 10 3 C9.67 4.65 9.34 6.3 9 8 C7.5164999 7.57742724 6.03823576 7.13643678 4.5625 6.6875 C3.73878906 6.44386719 2.91507813 6.20023437 2.06640625 5.94921875 C1.38449219 5.63597656 0.70257813 5.32273437 0 5 C-0.33 4.01 -0.66 3.02 -1 2 C-0.67 1.34 -0.34 0.68 0 0 Z " fill="#717171" transform="translate(181,431)"/>
 <path d="M0 0 C0.99 0.99 1.98 1.98 3 3 C1.549046 6.82524236 -0.38181932 8.19090966 -4 10 C-4.66 10 -5.32 10 -6 10 C-6.33 8.35 -6.66 6.7 -7 5 C-4.69 3.35 -2.38 1.7 0 0 Z " fill="#707070" transform="translate(364,411)"/>
 <path d="M0 0 C3.93673644 1.31224548 6.22719294 2.91910327 9 6 C8.01 7.485 8.01 7.485 7 9 C3.22454612 7.90931332 0.52956528 7.0916909 -2 4 C-1.34 2.68 -0.68 1.36 0 0 Z " fill="#707070" transform="translate(146,411)"/>
 <path d="M0 0 C1.65 0.33 3.3 0.66 5 1 C4.34 4.3 3.68 7.6 3 11 C1.35 10.67 -0.3 10.34 -2 10 C-1.54177532 6.53058454 -1.10868317 3.32604951 0 0 Z " fill="#707070" transform="translate(71,194)"/>
 <path d="M0 0 C1.65 0.33 3.3 0.66 5 1 C3.94124926 4.40312738 2.99097846 7.01353231 1 10 C-0.65 9.67 -2.3 9.34 -4 9 C-2.94124926 5.59687262 -1.99097846 2.98646769 0 0 Z " fill="#707070" transform="translate(88,157)"/>
 <path d="M0 0 C0 1.65 0 3.3 0 5 C-3.61973402 6.31626692 -6.09567131 7 -10 7 C-10 5.35 -10 3.7 -10 2 C-6.49223216 0.39644899 -3.85645121 -0.22036864 0 0 Z " fill="#707070" transform="translate(311,438)"/>
 <path d="M0 0 C3.82097239 0.53069061 6.06171403 1.49701566 9 4 C8.67 5.32 8.34 6.64 8 8 C4.04179141 7.43454163 1.3340947 6.19097652 -2 4 C-1.34 2.68 -0.68 1.36 0 0 Z " fill="#6F6F6F" transform="translate(163,422)"/>
 <path d="M0 0 C0.598125 0.226875 1.19625 0.45375 1.8125 0.6875 C1.8125 5.07718456 -0.31555101 6.45655739 -3.1875 9.6875 C-4.5075 9.0275 -5.8275 8.3675 -7.1875 7.6875 C-4.27205882 -0.61029412 -4.27205882 -0.61029412 0 0 Z " fill="#6F6F6F" transform="translate(409.1875,370.3125)"/>
 <path d="M0 0 C3 1 3 1 4.75 3.3125 C6 6 6 6 5.875 8.25 C5.58625 8.8275 5.2975 9.405 5 10 C4.01 10.33 3.02 10.66 2 11 C0.35 8.03 -1.3 5.06 -3 2 C-2.01 1.34 -1.02 0.68 0 0 Z " fill="#6F6F6F" transform="translate(91,352)"/>
 <path d="M0 0 C0.99 2.97 1.98 5.94 3 9 C1.02 9.99 1.02 9.99 -1 11 C-5 4.375 -5 4.375 -5 1 C-3 0 -3 0 0 0 Z " fill="#6F6F6F" transform="translate(84,334)"/>
 <path d="M0 0 C1.32 0 2.64 0 4 0 C4.66 3.3 5.32 6.6 6 10 C4.35 10.33 2.7 10.66 1 11 C0.63890458 9.35567294 0.28629924 7.7094792 -0.0625 6.0625 C-0.25972656 5.14597656 -0.45695312 4.22945312 -0.66015625 3.28515625 C-0.77230469 2.53105469 -0.88445312 1.77695313 -1 1 C-0.67 0.67 -0.34 0.34 0 0 Z " fill="#6F6F6F" transform="translate(438,197)"/>
 <path d="M0 0 C4.39158329 1.4638611 4.87947433 3.97831338 7 8 C5 10 5 10 3.125 10.0625 C-0.31737224 8.34131388 -1.28033024 5.37792273 -3 2 C-2.01 1.34 -1.02 0.68 0 0 Z " fill="#6F6F6F" transform="translate(412,142)"/>
 <path d="M0 0 C1.32 0.66 2.64 1.32 4 2 C3.52797514 6.24822374 1.03344482 8.19989709 -2 11 C-2.99 10.34 -3.98 9.68 -5 9 C-3.7508258 5.54074837 -2.32472205 2.85306797 0 0 Z " fill="#6F6F6F" transform="translate(100,139)"/>
 <path d="M0 0 C2.71224618 1.61268692 5.37352812 3.24901874 8 5 C7.34 6.65 6.68 8.3 6 10 C3.04590299 8.62845496 0.55991624 7.01136276 -2 5 C-1.125 1.125 -1.125 1.125 0 0 Z " fill="#6F6F6F" transform="translate(369,98)"/>
 <path d="M0 0 C1.6875 1 1.6875 1 2.6875 4 C1.56676138 4.83905565 0.44075453 5.67107831 -0.6875 6.5 C-1.31398437 6.9640625 -1.94046875 7.428125 -2.5859375 7.90625 C-4.3125 9 -4.3125 9 -6.3125 9 C-6.9725 7.68 -7.6325 6.36 -8.3125 5 C-2.94664634 0 -2.94664634 0 0 0 Z " fill="#6F6F6F" transform="translate(145.3125,97)"/>
 <path d="M0 0 C3.40312738 1.05875074 6.01353231 2.00902154 9 4 C8.625 5.9375 8.625 5.9375 8 8 C7.01 8.495 7.01 8.495 6 9 C3.5249829 7.88568235 1.32116581 6.41849022 -1 5 C-0.67 3.35 -0.34 1.7 0 0 Z " fill="#6B6B6B" transform="translate(351,87)"/>
 <path d="M0 0 C2.97 0.99 5.94 1.98 9 3 C8.67 4.65 8.34 6.3 8 8 C6.51800098 7.55090939 5.03944764 7.09043436 3.5625 6.625 C2.73878906 6.36976562 1.91507812 6.11453125 1.06640625 5.8515625 C-1 5 -1 5 -2 3 C-1.34 2.01 -0.68 1.02 0 0 Z " fill="#6F6F6F" transform="translate(333,78)"/>
 <path d="M0 0 C3.3 0.33 6.6 0.66 10 1 C10 2.65 10 4.3 10 6 C2.25 6.125 2.25 6.125 0 5 C0 3.35 0 1.7 0 0 Z " fill="#6F6F6F" transform="translate(220,442)"/>
 <path d="M0 0 C1.65 0 3.3 0 5 0 C5.33 3.3 5.66 6.6 6 10 C4.35 10 2.7 10 1 10 C0.67 6.7 0.34 3.4 0 0 Z " fill="#6E6E6E" transform="translate(442,217)"/>
 <path d="M0 0 C2 1 2 1 2.8515625 3.06640625 C3.10679687 3.89011719 3.36203125 4.71382812 3.625 5.5625 C3.88539063 6.38878906 4.14578125 7.21507812 4.4140625 8.06640625 C4.60742188 8.70449219 4.80078125 9.34257812 5 10 C3.35 10.33 1.7 10.66 0 11 C-3.05108798 5.63008515 -3.05108798 5.63008515 -2.8125 2.6875 C-2 1 -2 1 0 0 Z " fill="#6F6F6F" transform="translate(433,177)"/>
 <path d="M0 0 C2.31 1.65 4.62 3.3 7 5 C6.67 6.32 6.34 7.64 6 9 C2 9 2 9 0.515625 7.6875 C-0.65625 6.125 -1.828125 4.5625 -3 3 C-2.01 2.01 -1.02 1.02 0 0 Z " fill="#6E6E6E" transform="translate(385,111)"/>
 <path d="M0 0 C3.3 0 6.6 0 10 0 C10 1.65 10 3.3 10 5 C6.7 5 3.4 5 0 5 C0 3.35 0 1.7 0 0 Z " fill="#6C6C6C" transform="translate(261,445)"/>
 <path d="M0 0 C3.3 0 6.6 0 10 0 C10 1.65 10 3.3 10 5 C6.7 5 3.4 5 0 5 C0 3.35 0 1.7 0 0 Z " fill="#6B6B6B" transform="translate(240,445)"/>
 <path d="M0 0 C6.39534884 0.69767442 6.39534884 0.69767442 9 2 C9 3.65 9 5.3 9 7 C4.545 6.01 4.545 6.01 0 5 C-0.33 3.68 -0.66 2.36 -1 1 C-0.67 0.67 -0.34 0.34 0 0 Z " fill="#707070" transform="translate(201,438)"/>
 <path d="M0 0 C1.65 0.33 3.3 0.66 5 1 C4.71872579 2.48117801 4.42466268 3.95993249 4.125 5.4375 C3.96257812 6.26121094 3.80015625 7.08492188 3.6328125 7.93359375 C3.42398437 8.61550781 3.21515625 9.29742187 3 10 C2.01 10.495 2.01 10.495 1 11 C0.01 10.34 -0.98 9.68 -2 9 C-1.34 6.03 -0.68 3.06 0 0 Z " fill="#6E6E6E" transform="translate(435,316)"/>
 <path d="M0 0 C1.65 0 3.3 0 5 0 C5 3.3 5 6.6 5 10 C3.35 10 1.7 10 0 10 C0 6.7 0 3.4 0 0 Z " fill="#676767" transform="translate(445,256)"/>
 <path d="M0 0 C1.65 0 3.3 0 5 0 C5 3.3 5 6.6 5 10 C3.35 10 1.7 10 0 10 C0 6.7 0 3.4 0 0 Z " fill="#707070" transform="translate(62,255)"/>
 <path d="M0 0 C3.36720387 1.39332574 4.9859524 2.9789286 7 6 C6.34 7.32 5.68 8.64 5 10 C1.63279613 8.60667426 0.0140476 7.0210714 -2 4 C-1.34 2.68 -0.68 1.36 0 0 Z " fill="#6C6C6C" transform="translate(399,126)"/>
 <path d="M0 0 C3.36720387 1.39332574 4.9859524 2.9789286 7 6 C6.34 7.32 5.68 8.64 5 10 C1.63279613 8.60667426 0.0140476 7.0210714 -2 4 C-1.34 2.68 -0.68 1.36 0 0 Z " fill="#6B6B6B" transform="translate(102,369)"/>
 <path d="M0 0 C1.32 0 2.64 0 4 0 C4 3.3 4 6.6 4 10 C2.35 10 0.7 10 -1 10 C-1.02689216 8.52093108 -1.04634621 7.04172517 -1.0625 5.5625 C-1.07410156 4.73878906 -1.08570313 3.91507813 -1.09765625 3.06640625 C-1 1 -1 1 0 0 Z " fill="#6C6C6C" transform="translate(63,235)"/>
 <path d="M0 0 C1.32 0.66 2.64 1.32 4 2 C2.62845496 4.95409701 1.01136276 7.44008376 -1 10 C-2.32 9.34 -3.64 8.68 -5 8 C-4.45773019 4.20411134 -2.79872437 2.52788007 0 0 Z " fill="#6B6B6B" transform="translate(113,124)"/>
 <path d="M0 0 C1.32 1.32 2.64 2.64 4 4 C2.02 5.98 0.04 7.96 -2 10 C-3.32 9.34 -4.64 8.68 -6 8 C-4.55746343 4.63408134 -2.66735273 2.48952921 0 0 Z " fill="#6A6A6A" transform="translate(128,109)"/>
 <path d="M0 0 C-0.33 1.32 -0.66 2.64 -1 4 C-3.64 4.66 -6.28 5.32 -9 6 C-9.33 4.35 -9.66 2.7 -10 1 C-6.21812119 -0.83691257 -4.05431692 -1.15837626 0 0 Z " fill="#6C6C6C" transform="translate(202,71)"/>
 <path d="M0 0 C2.97 0 5.94 0 9 0 C9 1.65 9 3.3 9 5 C5.7 5 2.4 5 -1 5 C-0.67 3.35 -0.34 1.7 0 0 Z " fill="#626262" transform="translate(253,62)"/>
 <path d="M0 0 C1.16144531 0.00902344 2.32289062 0.01804687 3.51953125 0.02734375 C4.39996094 0.03894531 5.28039062 0.05054688 6.1875 0.0625 C6.1875 1.0525 6.1875 2.0425 6.1875 3.0625 C-0.0825 3.0625 -6.3525 3.0625 -12.8125 3.0625 C-12.4825 2.4025 -12.1525 1.7425 -11.8125 1.0625 C-7.88476248 -0.07920067 -4.06671021 -0.04107788 0 0 Z " fill="#010101" transform="translate(79.8125,303.9375)"/>
 <path d="M0 0 C0.33 0.99 0.66 1.98 1 3 C-0.36328125 5.48046875 -0.36328125 5.48046875 -2.3125 8.1875 C-2.94800781 9.08855469 -3.58351563 9.98960937 -4.23828125 10.91796875 C-4.81964844 11.60503906 -5.40101562 12.29210937 -6 13 C-6.66 13 -7.32 13 -8 13 C-8.66 13.99 -9.32 14.98 -10 16 C-9.44590036 11.77973426 -8.03747714 9.1871824 -5.5625 5.75 C-4.94503906 4.87859375 -4.32757813 4.0071875 -3.69140625 3.109375 C-2 1 -2 1 0 0 Z " fill="#141414" transform="translate(127,169)"/>
 <path d="M0 0 C6.28163265 0.34897959 6.28163265 0.34897959 9 2.8125 C10.19801231 5.43315193 9.80765705 6.32463602 9 9 C8.52949219 8.59007812 8.05898438 8.18015625 7.57421875 7.7578125 C6.95160156 7.21898437 6.32898438 6.68015625 5.6875 6.125 C5.07261719 5.59132813 4.45773437 5.05765625 3.82421875 4.5078125 C1.86501788 2.8359553 1.86501788 2.8359553 -1 1 C-0.67 0.67 -0.34 0.34 0 0 Z " fill="#0F0F0F" transform="translate(372,391)"/>
 <path d="M0 0 C1.62490954 -0.02698189 3.24994633 -0.04638757 4.875 -0.0625 C5.77992187 -0.07410156 6.68484375 -0.08570313 7.6171875 -0.09765625 C10 0 10 0 12 1 C12 1.66 12 2.32 12 3 C8.04 3 4.08 3 0 3 C0 2.01 0 1.02 0 0 Z " fill="#0D0E0D" transform="translate(72,464)"/>
 <path d="M0 0 C0.66 0.33 1.32 0.66 2 1 C1.0980639 2.48819457 0.17785871 3.96532813 -0.75 5.4375 C-1.26046875 6.26121094 -1.7709375 7.08492188 -2.296875 7.93359375 C-4.1792182 10.21744593 -5.1157546 10.65514457 -8 11 C-6.46457536 6.52167812 -4.39145948 2.19572974 0 0 Z " fill="#161616" transform="translate(423,284)"/>
 <path d="M0 0 C0 0.66 0 1.32 0 2 C-1.093125 2.309375 -2.18625 2.61875 -3.3125 2.9375 C-5.55407994 3.58337897 -7.7869351 4.2623117 -10 5 C-10.33 4.01 -10.66 3.02 -11 2 C-3.57142857 -1.57142857 -3.57142857 -1.57142857 0 0 Z " fill="#CECCCD" transform="translate(70,486)"/>
 <path d="M0 0 C0.66 0.66 1.32 1.32 2 2 C1.40832031 1.97679687 0.81664063 1.95359375 0.20703125 1.9296875 C-4.33801959 1.82588536 -7.85940059 1.86291643 -12 4 C-11.1875 2.0625 -11.1875 2.0625 -10 0 C-6.25976024 -1.24674659 -3.83399823 -0.76679965 0 0 Z " fill="#888888" transform="translate(74,477)"/>
 <path d="M0 0 C2.4375 0.25 2.4375 0.25 5 1 C5.66 1.99 6.32 2.98 7 4 C6.34 4.66 5.68 5.32 5 6 C4.34 5.01 3.68 4.02 3 3 C2.38125 3.309375 1.7625 3.61875 1.125 3.9375 C-0.25 4.625 -1.625 5.3125 -3 6 C-1.125 1.125 -1.125 1.125 0 0 Z " fill="#DDDDDD" transform="translate(393,383)"/>
 <path d="M0 0 C0.66 0.33 1.32 0.66 2 1 C0.68 3.64 -0.64 6.28 -2 9 C-2.66 8.34 -3.32 7.68 -4 7 C-4.66 7.66 -5.32 8.32 -6 9 C-5.52797514 4.75177626 -3.03344482 2.80010291 0 0 Z " fill="#262626" transform="translate(17,481)"/>
 <path d="M0 0 C4.02118642 2.06493357 6.01334998 3.92213943 8 8 C8 8.66 8 9.32 8 10 C7.34 10 6.68 10 6 10 C4.63636792 8.02053408 3.30581356 6.0180755 2 4 C0.37648891 2.20605554 0.37648891 2.20605554 -1 1 C-0.67 0.67 -0.34 0.34 0 0 Z " fill="#29282A" transform="translate(82,484)"/>
 <path d="M0 0 C-2.52788007 2.79872437 -4.20411134 4.45773019 -8 5 C-7.625 3.0625 -7.625 3.0625 -7 1 C-4.53721199 -0.231394 -2.7204945 -0.07159196 0 0 Z " fill="#DDD0D0" transform="translate(70,489)"/>
 <path d="M0 0 C0 3 0 3 -2.375 5.6875 C-5 8 -5 8 -7 8 C-7 7.34 -7 6.68 -7 6 C-5.46875 4.4921875 -5.46875 4.4921875 -3.5 2.875 C-2.8503125 2.33617187 -2.200625 1.79734375 -1.53125 1.2421875 C-1.0259375 0.83226562 -0.520625 0.42234375 0 0 Z " fill="#99252A" transform="translate(40,496)"/>
 <path d="M0 0 C0.66 0.33 1.32 0.66 2 1 C-0.52788007 3.79872437 -2.20411134 5.45773019 -6 6 C-4.98545548 3.4636387 -4.3146444 2.20648539 -2 0.6875 C-1.34 0.460625 -0.68 0.23375 0 0 Z " fill="#080808" transform="translate(23,478)"/>
 <path d="M0 0 C-0.33 0.66 -0.66 1.32 -1 2 C-3.64 2 -6.28 2 -9 2 C-8.67 1.34 -8.34 0.68 -8 0 C-4.71585695 -0.95067299 -3.30306592 -1.10102197 0 0 Z " fill="#020302" transform="translate(35,491)"/>
 <path d="M0 0 C-0.33 0.66 -0.66 1.32 -1 2 C-4.0625 2.625 -4.0625 2.625 -7 3 C-6.67 2.01 -6.34 1.02 -6 0 C-3.50907189 -1.24546405 -2.58919267 -0.7767578 0 0 Z " fill="#171718" transform="translate(41,490)"/>
 <path d="M0 0 C0 0.66 0 1.32 0 2 C-2.64 2.66 -5.28 3.32 -8 4 C-7.67 3.01 -7.34 2.02 -7 1 C-4 0 -4 0 0 0 Z " fill="#050406" transform="translate(48,488)"/>
</svg>
