<?xml version="1.0" encoding="UTF-8"?>
<svg width="108" height="108" version="1.1" viewBox="0 0 28.575 28.575" xmlns="http://www.w3.org/2000/svg" xmlns:cc="http://creativecommons.org/ns#" xmlns:dc="http://purl.org/dc/elements/1.1/" xmlns:rdf="http://www.w3.org/1999/02/22-rdf-syntax-ns#">
 <metadata>
  <rdf:RDF>
   <cc:Work rdf:about="">
    <dc:format>image/svg+xml</dc:format>
    <dc:type rdf:resource="http://purl.org/dc/dcmitype/StillImage"/>
    <dc:title/>
   </cc:Work>
  </rdf:RDF>
 </metadata>
 <rect x="2.1167" y="5.0271" width="24.342" height="1.5875" rx="0" fill="#4d68ff"/>
 <rect x="2.1167" y="21.96" width="24.342" height="1.5875" rx="0" fill="#4d68ff"/>
 <g stroke-width=".26458" aria-label="km/h">
  <path d="m9.2729 19.477h-0.87161l-1.7129-1.8645h-0.015158v1.8645h-0.6215v-5.745h0.6215v3.6418h0.015158l1.6295-1.7773h0.81476l-1.8001 1.8721z"/>
  <path d="m15.42 19.477h-0.6215v-2.2283q0-0.64423-0.20085-0.93224-0.19706-0.28801-0.66697-0.28801-0.39791 0-0.67834 0.3638-0.27664 0.3638-0.27664 0.87161v2.2131h-0.6215v-2.3041q0-1.1445-0.88298-1.1445-0.40928 0-0.67455 0.34485-0.26527 0.34106-0.26527 0.89056v2.2131h-0.62149v-3.8806h0.62149v0.61392h0.01516q0.41307-0.70487 1.2051-0.70487 0.39791 0 0.6935 0.22359 0.29559 0.2198 0.40549 0.57981 0.43201-0.8034 1.2885-0.8034 1.2809 0 1.2809 1.5803z"/>
  <path d="m19.046 14.042-2.6072 6.3362h-0.57981l2.5997-6.3362z"/>
  <path d="m22.84 19.477h-0.6215v-2.2359q0-1.2127-0.90193-1.2127-0.45475 0-0.7655 0.35243-0.31075 0.34864-0.31075 0.89814v2.198h-0.6215v-5.745h0.6215v2.5087h0.01516q0.44717-0.73518 1.2733-0.73518 1.3112 0 1.3112 1.5803z"/>
 </g>
 <g transform="translate(2.6458)" stroke-width=".26458" aria-label="速度">
  <path d="m6.0055 9.3361q0.26252 0.31833 0.59118 0.52917 0.27699 0.17983 0.68006 0.32866-0.068213 0.05994-0.099219 0.12816-0.022738 0.04961-0.037207 0.04961-0.010335 0-0.055811-0.02067-0.78341-0.35967-1.1824-0.95291 0.018604 1.1286 0.018604 1.1906 0 0.0248-0.031006 0.0248h-0.13022q-0.031006 0-0.031006-0.0248 0-0.05168 0.018603-1.1762-0.33693 0.5457-1.0232 0.93018-0.043408 0.02687-0.057878 0.02687-0.018604 0-0.047542-0.04754-0.037206-0.06201-0.10335-0.10129 0.40101-0.18604 0.66352-0.39687 0.25838-0.20671 0.45889-0.48783h-0.26252l-0.56224 0.00827q-0.024805 0-0.024805-0.028939l0.00413-0.30592v-0.26458l-0.00413-0.29766q0-0.028939 0.024805-0.028939l0.56224 0.00827h0.35967v-0.39068h-0.5457l-0.59738 0.00827q-0.028939 0-0.028939-0.028939v-0.13229q0-0.028939 0.028939-0.028939l0.59738 0.00827h0.5457v-0.093017q0-0.27905-0.031006-0.43615 0.10542 0.0062 0.21291 0.02067 0.047542 0.00827 0.047542 0.03514 0 0.010335-0.022738 0.066146-0.024805 0.086816-0.024805 0.32659v0.080615h0.65939l0.60151-0.00827q0.031006 0 0.031006 0.028939v0.13229q0 0.028939-0.031006 0.028939l-0.60151-0.00827h-0.65939v0.39067h0.43201l0.56224-0.00827q0.026872 0 0.026872 0.028939l-0.00827 0.29766v0.26458l0.00827 0.30592q0 0.028939-0.026872 0.028939l-0.56224-0.00827zm-0.088883-0.1571h0.83096v-0.59531h-0.83096zm-0.1819-0.59531h-0.76481v0.59531h0.76481zm-1.879-1.0769q0.23564 0.23771 0.46922 0.58084 0.00827 0.010335 0.00827 0.016536 0 0.010335-0.037207 0.039274l-0.064079 0.045475q-0.039274 0.028939-0.053743 0.028939-0.010335 0-0.022738-0.020671-0.23565-0.36587-0.44855-0.57877-0.012402-0.014469-0.012402-0.020671 0-0.012402 0.037207-0.039274l0.059945-0.041341q0.026872-0.02067 0.041341-0.02067 0.010335 0 0.022738 0.010335zm3.5016 3.2184q-0.051676 0.06201-0.064079 0.14883-0.010335 0.05581-0.022738 0.06408-0.010335 0.0083-0.057878 0.01033-0.90124 0.05581-1.5069 0.05581-0.76688 0-1.0583-0.14056-0.26665-0.13229-0.39894-0.44028-0.1943 0.21911-0.45269 0.43408-0.084749 0.07028-0.097152 0.09302-0.020671 0.03307-0.041341 0.03307-0.022738 0-0.047542-0.02894-0.051676-0.07235-0.10542-0.1695 0.15503-0.08268 0.26252-0.16536 0.20671-0.15296 0.39894-0.3638v-1.0893h-0.34726l-0.28525 0.00827q-0.033073 0-0.033073-0.028939v-0.14056q0-0.028939 0.033073-0.028939l0.28525 0.00827h0.21497l0.29559-0.00827q0.028939 0 0.028939 0.028939l-0.0062 0.39481v0.86403q0.11162 0.31006 0.3762 0.43615 0.24805 0.11369 0.86816 0.11369 0.82476 0 1.7611-0.08888z"/>
  <path d="m10.444 8.4803h0.30386l0.60565-0.00827q0.03101 0 0.03101 0.028939v0.11989q0 0.028939-0.03101 0.028939l-0.60565-0.00827h-0.30386v0.21084l0.0083 0.39067q0 0.028939-0.02894 0.028939l-0.39481-0.00827h-0.3845l-0.39481 0.00827q-0.028939 0-0.028939-0.028939l0.00827-0.39067v-0.21084h-0.12609l-0.58498 0.00827q-0.028939 0-0.028939-0.028939v-0.11989q0-0.028939 0.028939-0.028939l0.58498 0.00827h0.12609q0-0.31419-0.028939-0.42375 0.078548 0.00413 0.20671 0.020671 0.041341 0.00827 0.041341 0.031006 0 0.00827-0.02067 0.072347-0.020671 0.051676-0.020671 0.29972h0.8599q0-0.31006-0.02894-0.42375 0.08061 0.00413 0.2067 0.020671 0.04754 0.00827 0.04754 0.031006 0 0.020671-0.02481 0.072347-0.02274 0.047542-0.02274 0.29972zm-1.0377 0.16123v0.45682h0.8599v-0.45682zm-0.35553 1.1348-0.47542 0.00827q-0.028939 0-0.028939-0.028939v-0.11989q0-0.028939 0.028939-0.028939l0.57257 0.00827h1.3973q0.04134 0 0.08475-0.016536 0.02481-0.00827 0.03307-0.00827 0.02894 0 0.09715 0.064079 0.06821 0.074414 0.06821 0.097152 0 0.028939-0.03307 0.047542-0.03514 0.016536-0.10335 0.10129-0.26458 0.35967-0.63872 0.62012 0.53743 0.28939 1.3932 0.39067-0.04961 0.04341-0.08061 0.12196-0.02274 0.05994-0.05581 0.05994-0.01034 0-0.04134-0.0041-0.83302-0.11162-1.3891-0.45682-0.57257 0.33693-1.4428 0.47749-0.03514 0.0062-0.047542 0.0062-0.026872 0-0.053744-0.05788-0.037207-0.07028-0.093017-0.10542 0.85369-0.09715 1.4676-0.43615-0.41341-0.30179-0.65939-0.74001zm0.19844 0q0.23358 0.37414 0.63045 0.64285 0.41754-0.26458 0.67386-0.64285zm0.3328-2.0278v-0.10955q0-0.22531-0.028939-0.34313 0.074414 0.00413 0.22531 0.020671 0.041341 0.00827 0.041341 0.028939 0 0.031006-0.020671 0.080615-0.020671 0.047542-0.020671 0.21291v0.10955h1.0108l0.59738-0.00827q0.0248 0 0.0248 0.028939v0.13643q0 0.028939-0.0248 0.028939l-0.59738-0.00827h-2.4722v0.7028q0 0.68213-0.051676 1.1431-0.080615 0.6842-0.40101 1.2444-0.022738 0.03927-0.033073 0.03927-0.012402 0-0.047542-0.03514-0.053744-0.05995-0.12609-0.08475 0.34727-0.54157 0.41755-1.2361 0.047542-0.42788 0.047542-1.0831l-0.00827-0.84749q0-0.028939 0.028939-0.028939l0.60151 0.00827z"/>
 </g>
</svg>
